<svg xmlns="http://www.w3.org/2000/svg" width="26" height="26" viewBox="0 0 26 26" fill="none">
<g clip-path="url(#clip0_392_13758)">
<path d="M25.0714 2.78644H0.928571C0.414955 2.78644 0 3.20139 0 3.71501V22.2864C0 22.8001 0.414955 23.215 0.928571 23.215H25.0714C25.585 23.215 26 22.8001 26 22.2864V3.71501C26 3.20139 25.585 2.78644 25.0714 2.78644ZM23.9107 21.1257H2.08929V19.9679L6.10826 15.2003L10.4638 20.3655L17.2395 12.3333L23.9107 20.2436V21.1257ZM23.9107 17.3592L17.4165 9.65787C17.3237 9.5476 17.1554 9.5476 17.0625 9.65787L10.4638 17.4811L6.28527 12.5277C6.19241 12.4175 6.02411 12.4175 5.93125 12.5277L2.08929 17.0835V4.87572H23.9107V17.3592Z" fill="#6C5DD3"/>
<path d="M10.4629 20.3655L6.10735 15.2003L2.08838 19.9679V21.1257H23.9098V20.2436L17.2386 12.3333L10.4629 20.3655Z" fill="#E6E9FF"/>
<path d="M2.08838 17.0827L5.93034 12.5269C6.0232 12.4166 6.1915 12.4166 6.28436 12.5269L10.4629 17.4802L17.0616 9.65702C17.1544 9.54675 17.3228 9.54675 17.4156 9.65702L23.9098 17.3584V4.87488H2.08838V17.0827ZM6.96338 6.26774C7.29872 6.26774 7.63077 6.33379 7.94059 6.46211C8.2504 6.59044 8.53191 6.77854 8.76903 7.01566C9.00615 7.25278 9.19424 7.53428 9.32257 7.8441C9.4509 8.15391 9.51695 8.48597 9.51695 8.82131C9.51695 9.15665 9.4509 9.4887 9.32257 9.79852C9.19424 10.1083 9.00615 10.3898 8.76903 10.627C8.53191 10.8641 8.2504 11.0522 7.94059 11.1805C7.63077 11.3088 7.29872 11.3749 6.96338 11.3749C6.28613 11.3749 5.63662 11.1058 5.15773 10.627C4.67884 10.1481 4.40981 9.49856 4.40981 8.82131C4.40981 8.14406 4.67884 7.49455 5.15773 7.01566C5.63662 6.53677 6.28613 6.26774 6.96338 6.26774Z" fill="#E6E9FF"/>
<path d="M6.15088 8.82001C6.15088 9.0355 6.23648 9.24216 6.38885 9.39453C6.54123 9.5469 6.74789 9.63251 6.96338 9.63251C7.17887 9.63251 7.38553 9.5469 7.5379 9.39453C7.69028 9.24216 7.77588 9.0355 7.77588 8.82001C7.77588 8.60452 7.69028 8.39786 7.5379 8.24548C7.38553 8.09311 7.17887 8.00751 6.96338 8.00751C6.74789 8.00751 6.54123 8.09311 6.38885 8.24548C6.23648 8.39786 6.15088 8.60452 6.15088 8.82001Z" fill="#E6E9FF"/>
<path d="M6.96519 11.3753C7.30053 11.3753 7.63259 11.3093 7.9424 11.181C8.25222 11.0526 8.53372 10.8645 8.77084 10.6274C9.00796 10.3903 9.19606 10.1088 9.32438 9.79897C9.45271 9.48916 9.51876 9.1571 9.51876 8.82176C9.51876 8.48642 9.45271 8.15436 9.32438 7.84455C9.19606 7.53474 9.00796 7.25323 8.77084 7.01611C8.53372 6.77899 8.25222 6.5909 7.9424 6.46257C7.63259 6.33424 7.30053 6.26819 6.96519 6.26819C6.28794 6.26819 5.63843 6.53722 5.15954 7.01611C4.68066 7.495 4.41162 8.14451 4.41162 8.82176C4.41162 9.49901 4.68066 10.1485 5.15954 10.6274C5.63843 11.1063 6.28794 11.3753 6.96519 11.3753ZM6.96519 8.00926C7.41497 8.00926 7.77769 8.37198 7.77769 8.82176C7.77769 9.27154 7.41497 9.63426 6.96519 9.63426C6.51542 9.63426 6.15269 9.27154 6.15269 8.82176C6.15269 8.37198 6.51542 8.00926 6.96519 8.00926Z" fill="#6C5DD3"/>
</g>
<defs>
<clipPath id="clip0_392_13758">
<rect width="26" height="26" fill="white"/>
</clipPath>
</defs>
</svg>