<svg width="23" height="23" viewBox="0 0 23 23" fill="none" xmlns="http://www.w3.org/2000/svg">
<path d="M1.18614 22.5C1.25645 22.5 1.32676 22.493 1.39708 22.4824L7.31036 21.4453C7.38067 21.4312 7.44747 21.3996 7.49669 21.3469L22.3994 6.44414C22.432 6.41162 22.4579 6.37298 22.4755 6.33045C22.4932 6.28792 22.5022 6.24233 22.5022 6.19629C22.5022 6.15025 22.4932 6.10465 22.4755 6.06212C22.4579 6.01959 22.432 5.98096 22.3994 5.94844L16.5565 0.101953C16.4897 0.0351563 16.4018 0 16.3068 0C16.2119 0 16.124 0.0351563 16.0572 0.101953L1.1545 15.0047C1.10176 15.0574 1.07012 15.1207 1.05606 15.191L0.0189511 21.1043C-0.0152493 21.2926 -0.00302903 21.4865 0.0545537 21.669C0.112136 21.8516 0.213346 22.0173 0.34942 22.152C0.581451 22.377 0.873248 22.5 1.18614 22.5ZM3.55567 16.3687L16.3068 3.62109L18.8838 6.19805L6.13262 18.9457L3.00723 19.4977L3.55567 16.3687Z" fill="#6C5DD3"/>
</svg>
