<svg width="15" height="21" viewBox="0 0 15 21" fill="none" xmlns="http://www.w3.org/2000/svg">
<path d="M7.29139 0.00015082C4.0771 -0.0206309 1.11701 2.10794 0.243308 5.33708C0.046032 6.06606 -0.00328877 6.78328 0.000166461 7.47042C0.0123317 9.90894 1.32835 12.0156 2.81368 14.0607C4.29901 16.1059 5.97242 18.1188 6.86442 20.3214C6.93791 20.4955 7.10921 20.6087 7.29891 20.6087C7.48862 20.6087 7.65993 20.4955 7.73341 20.3214C8.62541 18.1188 10.2988 16.1063 11.7842 14.0607C13.2695 12.0152 14.5855 9.90878 14.5977 7.47042C14.6011 6.78332 14.5518 6.06611 14.3545 5.33708C13.4809 2.10803 10.5206 -0.0203758 7.30643 0.00015082C7.3015 0.00015082 7.29657 -1.28065e-05 7.29164 0.00015082H7.29139ZM7.29139 0.938427H7.30619C10.1032 0.914536 12.678 2.75855 13.441 5.5787C13.6085 6.19756 13.6579 6.83363 13.6546 7.47017C13.6442 9.57063 12.4767 11.5024 11.018 13.5109C9.7454 15.2631 8.29904 17.0657 7.29866 19.0824C6.29829 17.0657 4.85193 15.2631 3.57934 13.5109C2.12066 11.5024 0.953115 9.57063 0.942762 7.47017C0.939474 6.83363 0.988795 6.19756 1.15631 5.5787C1.91928 2.75843 4.49421 0.914549 7.29114 0.938427H7.29139ZM7.284 4.19332C5.6193 4.1912 4.25496 5.54398 4.25711 7.19901C4.25925 8.85404 5.6267 10.2026 7.2914 10.2047C8.95627 10.2071 10.3132 8.86141 10.311 7.20638C10.3089 5.55135 8.94886 4.19546 7.284 4.19332ZM7.284 5.13177C8.43904 5.13308 9.3669 6.05827 9.36837 7.20634C9.36985 8.35441 8.43904 9.26784 7.284 9.26638C6.12912 9.2649 5.20126 8.34708 5.19979 7.19897C5.19831 6.05086 6.12912 5.13026 7.284 5.13173V5.13177Z" fill="#F2F2F2"/>
</svg>
