<svg width="20" height="13" viewBox="0 0 20 13" fill="none" xmlns="http://www.w3.org/2000/svg">
<path d="M18.3728 0H1.62717C0.730045 0 0 0.731156 0 1.62973V11.3703C0 12.2688 0.730008 13 1.62717 13H18.3728C19.27 13 20 12.2688 20 11.3703V1.62973C20 0.731193 19.27 0 18.3727 0H18.3728ZM18.0234 0.953841L9.99996 6.6086L1.97653 0.953841H18.0234ZM19.0477 11.37C19.0477 11.7427 18.7449 12.0459 18.3729 12.0459H1.62721C1.25518 12.0459 0.952415 11.7426 0.952415 11.37V1.6295C0.952415 1.5569 0.96393 1.48682 0.985336 1.42117L9.72608 7.58125C9.80831 7.63921 9.90412 7.6682 10.0001 7.6682C10.096 7.6682 10.1918 7.63922 10.2741 7.58125L19.0148 1.42117C19.0362 1.48682 19.0477 1.5569 19.0477 1.6295L19.0477 11.37Z" fill="#F2F2F2"/>
</svg>
