<svg width="17" height="18" viewBox="0 0 17 18" fill="none" xmlns="http://www.w3.org/2000/svg">
<path d="M14.6844 10.9661C13.8899 10.1078 12.6501 9.94843 11.6697 10.5784L10.7336 11.1802C10.1841 11.5332 9.50436 11.4908 9.00187 11.0717C8.39818 10.568 7.81658 10.0153 7.27381 9.42901C6.73116 8.84322 6.22414 8.21989 5.76596 7.57653C5.38503 7.0415 5.38536 6.34977 5.76662 5.81522L6.41612 4.90417C7.09639 3.95018 7.0166 2.68419 6.22214 1.82576L5.23703 0.76196C4.80158 0.291594 4.2103 0.0215162 3.57267 0.00130919C2.93473 -0.0197399 2.32822 0.213665 1.86469 0.655711L0.756497 1.71343C0.114537 2.32554 -0.135466 3.17532 0.0705727 4.04444C0.758338 6.94698 2.28057 9.73324 4.47302 12.1011C6.66564 14.4693 9.31041 16.1848 12.1217 17.0612C12.3641 17.1369 12.6073 17.1739 12.8462 17.1739C13.4362 17.1739 13.9991 16.9466 14.4561 16.5109L15.5647 15.4533C16.0281 15.0113 16.2941 14.4111 16.314 13.7638C16.3338 13.1162 16.1048 12.5005 15.6694 12.03L14.6844 10.9661ZM14.9449 14.7838L13.8363 15.8413C13.4321 16.2266 12.9172 16.3478 12.3878 16.1827C9.72678 15.3528 7.21777 13.7239 5.13298 11.4716C3.04807 9.21957 1.60212 6.57676 0.951082 3.82905C0.821488 3.28177 0.972655 2.76795 1.37666 2.38262L2.48532 1.32508C2.77227 1.05111 3.14719 0.90512 3.54501 0.919552C3.94132 0.931944 4.30803 1.09932 4.57811 1.39114L5.56323 2.45493C6.05638 2.98762 6.10587 3.77321 5.68363 4.3653L5.03413 5.27635C4.41961 6.13799 4.4191 7.25224 5.03296 8.11453C5.5137 8.78979 6.04599 9.44385 6.61487 10.0582C7.1841 10.673 7.79395 11.2529 8.42774 11.7815C9.23742 12.4567 10.3329 12.5255 11.2184 11.9563L12.1544 11.3545C12.7631 10.9634 13.5322 11.0626 14.0253 11.5949L15.0104 12.6589C15.2803 12.9503 15.4221 13.3323 15.4099 13.7346C15.3965 14.1374 15.2318 14.5098 14.9449 14.7836L14.9449 14.7838Z" fill="#F2F2F2"/>
</svg>
