<svg width="23" height="23" viewBox="0 0 23 23" fill="none" xmlns="http://www.w3.org/2000/svg">
    <path fill-rule="evenodd" clip-rule="evenodd"
        d="M15.0508 17.3222H13.6908L14.7147 15.9961H16.7964C17.0335 15.9961 17.2237 15.8033 17.2237 15.5688C17.2237 15.3344 17.0309 15.1416 16.7964 15.1416H15.3765L17.6223 12.234C21.1916 11.9865 22.9997 11.3742 22.9997 10.4051C22.9997 9.43586 21.1942 8.82361 17.6249 8.5761L15.3765 5.66853H16.7964C17.0335 5.66853 17.2237 5.47574 17.2237 5.24126C17.2237 5.00678 17.0309 4.81398 16.7964 4.81398H14.7147L13.6882 3.48786H15.0482C15.2853 3.48786 15.4755 3.29506 15.4755 3.06058C15.4755 2.8261 15.2827 2.63331 15.0482 2.63331H13.0238L11.1975 0.270258C11.1167 0.166044 10.9917 0.103516 10.8588 0.103516H9.88179C9.74371 0.103516 9.61344 0.171255 9.53267 0.283284C9.45191 0.395314 9.43106 0.538608 9.47536 0.671481L12.1094 8.46668C9.76194 8.50054 7.40411 8.6256 5.38757 8.821L2.69364 5.67374C2.61287 5.57995 2.49303 5.52524 2.36797 5.52524H0.914189C0.580705 5.52524 0.374882 5.89259 0.54944 6.17658L2.40705 9.21441C0.294117 9.60261 0.0700567 10.0169 0.0700567 10.4129C0.0700567 10.8089 0.294117 11.2257 2.40705 11.6113L0.552046 14.6492C0.377488 14.9331 0.58331 15.3005 0.916794 15.3005H2.37058C2.49563 15.3005 2.61548 15.2458 2.69625 15.152L5.39017 12.0073C7.40932 12.2053 9.76715 12.3278 12.1146 12.3617L9.47796 20.1595C9.38417 20.4382 9.58999 20.7248 9.88439 20.7248H10.8614C10.9943 20.7248 11.1193 20.6623 11.2001 20.5581L13.0264 18.1924H15.0482C15.2853 18.1924 15.4755 17.9996 15.4755 17.7652C15.4755 17.5307 15.2827 17.3379 15.0482 17.3379L15.0508 17.3222ZM10.4784 0.950253H10.6504L16.4942 8.50836C15.3139 8.45625 14.1832 8.44062 13.016 8.44844L10.481 0.952858L10.4784 0.950253ZM3.31892 9.05288L1.67915 6.36937H2.16997L4.35325 8.92001C3.97808 8.9643 3.63156 9.00859 3.31892 9.05288ZM22.1347 10.4024C21.0561 12.1272 3.88428 11.5566 1.12522 10.4024C3.94942 9.22223 21.0822 8.7246 22.1347 10.4024ZM2.17257 14.4329H1.68016L3.32153 11.7494C3.63417 11.7937 3.98068 11.838 4.35585 11.8823L2.17257 14.4329ZM10.6504 19.8546H10.481L13.016 12.3565C14.1858 12.3617 15.3165 12.3486 16.4942 12.2965L10.653 19.8572L10.6504 19.8546ZM5.09399 17.5234H2.47562C2.23853 17.5234 2.04834 17.7162 2.04834 17.9507C2.04834 18.1852 2.24114 18.378 2.47562 18.378H5.09399C5.33108 18.378 5.52127 18.1852 5.52127 17.9507C5.52127 17.7162 5.32847 17.5234 5.09399 17.5234ZM0.427277 17.5234H0.864975C1.09946 17.5234 1.29225 17.7162 1.29225 17.9507C1.29225 18.1852 1.10206 18.378 0.864975 18.378H0.427277C0.192796 18.378 0 18.1852 0 17.9507C0 17.7162 0.19019 17.5234 0.427277 17.5234ZM5.53876 4.41546C5.53876 4.65255 5.73156 4.84274 5.96604 4.84274H8.58441C8.8215 4.84274 9.01169 4.64995 9.01169 4.41546C9.01169 4.18098 8.81889 3.98819 8.58441 3.98819H5.96604C5.72895 3.98819 5.53876 4.18098 5.53876 4.41546ZM3.49375 4.41546C3.49375 4.18098 3.68394 3.98819 3.92102 3.98819H4.35872C4.5932 3.98819 4.786 4.18098 4.786 4.41546C4.786 4.64995 4.59581 4.84274 4.35872 4.84274H3.92102C3.68654 4.84274 3.49375 4.64995 3.49375 4.41546Z"
        fill="#6C5DD3" />
</svg>