<svg width="21" height="21" viewBox="0 0 21 21" fill="none" xmlns="http://www.w3.org/2000/svg">
<path fill-rule="evenodd" clip-rule="evenodd" d="M5.66377 1.61035C5.14495 0.616603 4.12526 0 3.0018 0C1.87835 0 0.858657 0.618599 0.335841 1.61634C-0.194957 2.63204 -0.0931874 3.79939 0.617203 4.82108C1.35553 5.88467 2.52488 8.19943 2.67654 9.40669C2.69649 9.57032 2.83618 9.69404 3.0018 9.69404C3.16743 9.69404 3.30711 9.57032 3.32707 9.40669C3.47872 8.19943 4.64807 5.88467 5.3864 4.82108C6.08482 3.81536 6.18858 2.61607 5.66178 1.61035H5.66377ZM3.0018 8.08569C2.50669 6.69484 1.93028 5.73492 1.47064 4.96946C0.755796 3.77899 0.323395 3.05889 0.918521 1.91965C1.3256 1.13942 2.12579 0.656513 3.0038 0.656513C3.88181 0.656513 4.678 1.13942 5.08309 1.91566C5.68243 3.06086 5.24857 3.78315 4.53234 4.97551C4.07295 5.7403 3.49739 6.69848 3.0038 8.08569H3.0018ZM3.00186 1.57213C2.20766 1.57213 1.56113 2.21866 1.56113 3.01286C1.56113 3.80706 2.20766 4.4536 3.00186 4.4536C3.79607 4.4536 4.4426 3.80706 4.4426 3.01286C4.4426 2.21866 3.79607 1.57213 3.00186 1.57213ZM3.00186 3.79709C2.56885 3.79709 2.21764 3.44588 2.21764 3.01286C2.21764 2.57984 2.56885 2.22864 3.00186 2.22864C3.43488 2.22864 3.78609 2.57984 3.78609 3.01286C3.78609 3.44588 3.43488 3.79709 3.00186 3.79709ZM10.1995 17.8612H10.856C11.0356 17.8612 11.1833 18.0089 11.1833 18.1885C11.1833 18.368 11.0376 18.5157 10.856 18.5157H10.1995C10.0199 18.5157 9.87227 18.368 9.87227 18.1885C9.87227 18.0089 10.0179 17.8612 10.1995 17.8612ZM6.45812 9.62717H7.75119C7.93278 9.62717 8.07845 9.47951 8.07845 9.29991C8.07845 9.12032 7.93078 8.97266 7.75119 8.97266H6.45812C6.27653 8.97266 6.13086 9.12032 6.13086 9.29991C6.13086 9.47951 6.27852 9.62717 6.45812 9.62717ZM12.9236 9.62717H11.6305C11.4509 9.62717 11.3032 9.47951 11.3032 9.29991C11.3032 9.12032 11.4489 8.97266 11.6305 8.97266H12.9236C13.1031 8.97266 13.2508 9.12032 13.2508 9.29991C13.2508 9.47951 13.1051 9.62717 12.9236 9.62717ZM9.0443 9.62717H10.3374C10.519 9.62717 10.6646 9.47951 10.6646 9.29991C10.6646 9.12032 10.517 8.97266 10.3374 8.97266H9.0443C8.86271 8.97266 8.71704 9.12032 8.71704 9.29991C8.71704 9.47951 8.8647 9.62717 9.0443 9.62717ZM14.6317 10.5382C14.5559 10.205 14.3384 9.92162 14.0351 9.76198V9.75999C13.8755 9.67618 13.8156 9.47663 13.8994 9.31699C13.9832 9.15735 14.1808 9.09549 14.3424 9.1813C14.8153 9.43073 15.1546 9.87373 15.2723 10.3926C15.3122 10.5702 15.2025 10.7458 15.0249 10.7857C14.8552 10.8256 14.6737 10.7198 14.6317 10.5382ZM13.622 12.6264C14.1528 12.5865 14.6397 12.3171 14.9589 11.8881C15.0667 11.7424 15.0348 11.5369 14.8891 11.4292C14.7434 11.3214 14.5379 11.3533 14.4301 11.499C14.2266 11.7744 13.9133 11.948 13.5741 11.9739C13.3925 11.9879 13.2568 12.1455 13.2708 12.3251C13.2847 12.5067 13.4424 12.6424 13.622 12.6284V12.6264ZM12.3067 12.6311H11.0136C10.834 12.6311 10.6863 12.4834 10.6863 12.3038C10.6863 12.1242 10.832 11.9766 11.0136 11.9766H12.3067C12.4862 11.9766 12.6339 12.1242 12.6339 12.3038C12.6339 12.4834 12.4882 12.6311 12.3067 12.6311ZM6.32037 17.8625C6.28363 17.8588 6.23655 17.8601 6.18119 17.8617C5.96895 17.8677 5.63496 17.877 5.29469 17.6191C5.15102 17.5093 4.94548 17.5393 4.83573 17.6829C4.72598 17.8266 4.75392 18.0341 4.89959 18.1419C5.42001 18.5363 5.93372 18.524 6.19195 18.5179C6.24858 18.5165 6.29293 18.5154 6.32236 18.519C6.50395 18.519 6.64962 18.3714 6.64962 18.1918C6.64962 18.0122 6.50196 17.8645 6.32236 17.8645L6.32037 17.8625ZM7.61342 17.8612H8.90649C9.08608 17.8612 9.23375 18.0089 9.23375 18.1885C9.23375 18.368 9.08808 18.5157 8.90649 18.5157H7.61342C7.43383 18.5157 7.28616 18.368 7.28616 18.1885C7.28616 18.0089 7.43183 17.8612 7.61342 17.8612ZM7.46179 12.3038C7.46179 12.1222 7.31412 11.9766 7.13453 11.9766C6.77278 11.978 6.52129 11.9773 6.3394 11.9769C6.01862 11.9761 5.91433 11.9758 5.80354 11.9885C5.62395 12.0085 5.49424 12.1721 5.51619 12.3517C5.53615 12.5193 5.67783 12.641 5.84146 12.641C5.85399 12.641 5.8556 12.6409 5.85843 12.6405C5.87136 12.639 5.90983 12.6343 7.13453 12.6311C7.31612 12.6311 7.46179 12.4834 7.46179 12.3038ZM9.72054 11.9766C9.90014 11.9766 10.0478 12.1222 10.0478 12.3038C10.0478 12.4834 9.90213 12.6311 9.72054 12.6311H8.42747C8.24788 12.6311 8.10021 12.4834 8.10021 12.3038C8.10021 12.1242 8.24588 11.9766 8.42747 11.9766H9.72054ZM4.81985 15.4874C4.81985 15.3058 4.67219 15.1602 4.4926 15.1602C4.313 15.1602 4.16534 15.3078 4.16534 15.4874C4.16534 15.8372 4.16501 16.0851 4.16478 16.2634V16.2634V16.2634V16.2635C4.1642 16.7116 4.16419 16.7202 4.17132 16.8044C4.18529 16.976 4.32897 17.1077 4.49858 17.1077C4.69015 17.1077 4.83981 16.9441 4.82584 16.7545C4.82225 16.709 4.82225 16.7074 4.82239 16.4459C4.82249 16.2716 4.82265 15.9821 4.82185 15.4874H4.81985ZM4.16461 14.0275C4.1581 13.7485 4.14696 13.2712 4.49644 12.7694H4.49445C4.59821 12.6217 4.80375 12.5838 4.95141 12.6876C5.10107 12.7913 5.13699 12.9969 5.03323 13.1445C4.80449 13.4737 4.81276 13.7862 4.81885 14.016C4.82063 14.083 4.82222 14.1429 4.81772 14.1942C4.81772 14.3738 4.67005 14.5214 4.49046 14.5214C4.31086 14.5214 4.1632 14.3758 4.1632 14.1942C4.16751 14.1522 4.1662 14.0958 4.16461 14.0275ZM5.47631 9.29796C5.47631 9.11637 5.32865 8.9707 5.14905 8.9707H4.49254C4.31095 8.9707 4.16528 9.11837 4.16528 9.29796C4.16528 9.47756 4.31295 9.62522 4.49254 9.62522H5.14905C5.33064 9.62522 5.47631 9.47756 5.47631 9.29796ZM16.6129 13.4472L20.8354 15.9037H20.8374C20.993 15.9955 21.0469 16.195 20.9551 16.3527C20.7685 16.6727 20.4321 16.4474 20.2131 16.3008C20.1439 16.2545 20.0865 16.216 20.0491 16.205V20.6709C20.0491 20.8505 19.9035 20.9981 19.7219 20.9981H13.1767C12.9971 20.9981 12.8494 20.8525 12.8494 20.6709V16.205L12.3925 16.4704C12.2348 16.5622 12.0353 16.5103 11.9435 16.3527C11.8517 16.195 11.9036 15.9955 12.0612 15.9037L16.2837 13.4472C16.3854 13.3874 16.5112 13.3874 16.6129 13.4472ZM15.8008 18.2424V20.3416H17.0938V18.2424H15.8008ZM17.7483 20.3416H19.3906H19.3926V15.8219L16.4473 14.1097L13.502 15.8219V20.3416H15.1442V17.9131C15.1442 17.7335 15.2899 17.5859 15.4715 17.5859H17.4211C17.6007 17.5859 17.7483 17.7315 17.7483 17.9131V20.3416Z" fill="#6C5DD3"/>
</svg>
