<svg width="21" height="21" viewBox="0 0 21 21" fill="none" xmlns="http://www.w3.org/2000/svg">
    <path
        d="M5.73267 11.4653C8.88564 11.4653 11.4653 8.89997 11.4653 5.73267C11.4653 2.56537 8.87745 0 5.73267 0C2.58789 0 0 2.55104 0 5.73267C0 8.89997 2.57765 11.4653 5.73267 11.4653ZM1.9573 2.35244C2.27055 2.62679 2.60632 2.86633 2.96461 3.06288C2.76806 3.76514 2.64931 4.55747 2.62474 5.40304H0.673589C0.749342 4.23399 1.22024 3.17344 1.9573 2.35039V2.35244ZM10.7917 5.40509H8.84059C8.81603 4.55952 8.69728 3.76718 8.50073 3.06493C8.85902 2.86633 9.19479 2.62884 9.50804 2.35244C10.2451 3.17344 10.716 4.23603 10.7917 5.40509ZM9.50804 9.11494C9.19479 8.84059 8.85902 8.60105 8.50073 8.40245C8.69728 7.7002 8.81603 6.90787 8.84059 6.06025H10.7917C10.716 7.23135 10.2451 8.2919 9.50804 9.11494ZM6.0623 8.36151C6.63147 8.39836 7.18221 8.52325 7.69815 8.74027C7.30915 9.80901 6.7236 10.5645 6.0623 10.7569V8.36151ZM6.0623 7.7043V6.06025H8.18543C8.16086 6.79117 8.06054 7.48728 7.89675 8.10968C7.31734 7.87423 6.69903 7.7391 6.0623 7.7043ZM6.0623 5.40509V3.76309C6.69903 3.72623 7.31734 3.59315 7.89675 3.35771C8.06054 3.97806 8.16086 4.67417 8.18543 5.40509H6.0623ZM6.0623 3.10588V0.708394C6.7236 0.900848 7.30915 1.65633 7.69815 2.72507C7.18221 2.94209 6.63147 3.06698 6.0623 3.10383V3.10588ZM5.40509 3.76309V5.40509H3.27991C3.30447 4.67417 3.4048 3.97806 3.56859 3.35771C4.148 3.59315 4.7663 3.72828 5.40304 3.76309H5.40509ZM3.76923 2.72711C4.15823 1.65633 4.74378 0.900848 5.40509 0.710441V3.10588C4.83592 3.06903 4.28517 2.94413 3.76923 2.72711ZM5.40509 6.06025V7.7043C4.76835 7.74115 4.15004 7.87423 3.57063 8.10968C3.40684 7.48728 3.30447 6.79117 3.28195 6.06025H5.40714H5.40509ZM5.40509 8.35946V10.7549C4.74378 10.5624 4.15823 9.80901 3.76923 8.73822C4.28517 8.5212 4.83592 8.39631 5.40509 8.35946ZM3.96987 10.4867C3.4007 10.2738 2.87862 9.96461 2.42615 9.5756C2.6616 9.37291 2.91138 9.19479 3.17549 9.04124C3.39046 9.60836 3.65867 10.0997 3.97192 10.4867H3.96987ZM8.28985 9.04124C8.55396 9.19479 8.80374 9.37291 9.03919 9.5756C8.58672 9.96665 8.06464 10.2758 7.49546 10.4867C7.80667 10.0997 8.07692 9.60836 8.2919 9.04124H8.28985ZM8.28985 2.42615C8.07487 1.85902 7.80667 1.36765 7.49546 0.980696C8.06464 1.19362 8.58672 1.50073 9.03919 1.89178C8.80374 2.09447 8.55396 2.27259 8.28985 2.42615ZM3.17139 2.42615C2.90933 2.27259 2.6575 2.09447 2.4241 1.89178C2.87657 1.50278 3.39661 1.19362 3.96578 0.980696C3.65458 1.36765 3.38637 1.85902 3.17139 2.42615ZM2.6227 6.0623C2.64726 6.90991 2.76601 7.70225 2.96256 8.4045C2.60427 8.6031 2.2685 8.84059 1.95525 9.11699C1.21819 8.29394 0.745247 7.2334 0.671541 6.0623H2.6227Z"
        fill="#6C5DD3" />
    <path
        d="M20.2075 10.2267V0.327581C20.2075 0.145364 20.0601 0 19.8799 0C19.6997 0 19.5523 0.147411 19.5523 0.327581V0.507751H15.9858C15.8036 0.507751 15.6582 0.655162 15.6582 0.835332V1.38198H13.9998C13.8974 1.38198 13.7992 1.43112 13.7377 1.51302C13.6763 1.59491 13.6558 1.70137 13.6845 1.8017L14.0797 3.18163L13.6845 4.56157C13.6558 4.65984 13.6763 4.7663 13.7377 4.85025C13.7992 4.93214 13.8974 4.98128 13.9998 4.98128H15.9878C16.17 4.98128 16.3154 4.83387 16.3154 4.6537V4.52881H19.5544V10.2308C19.2002 10.3393 18.9238 10.6177 18.8153 10.9699H13.0089C12.1265 10.9699 11.4099 11.6865 11.4099 12.5689V18.6087C11.4099 19.1287 10.9861 19.5525 10.466 19.5525H2.19051C2.082 19.1983 1.80355 18.9219 1.45141 18.8134V15.7792C1.8834 15.7792 2.26422 15.6174 2.58361 15.3021C2.91119 14.9766 3.07088 14.9807 3.36161 14.993C3.71786 15.0053 4.16214 15.0196 4.86849 14.5016C5.4438 14.0798 5.79595 13.9304 5.99045 13.8792C6.13786 13.8403 6.24023 13.7052 6.23614 13.5537C6.23204 13.4001 6.12353 13.2711 5.97407 13.2404C5.84304 13.2138 5.68949 13.1114 5.50522 12.9292C4.97495 12.4051 4.58595 12.4194 4.24403 12.4297C3.94716 12.4399 3.67077 12.4481 3.14868 12.0652C2.3932 11.5104 1.81379 11.3507 1.45345 11.3179V11.1357C1.45345 10.9535 1.30604 10.8081 1.12587 10.8081C0.945702 10.8081 0.79829 10.9555 0.79829 11.1357V18.8154C0.339677 18.9567 0.00390625 19.3785 0.00390625 19.8842C0.00390625 20.5025 0.507562 21.0061 1.12587 21.0061C1.62953 21.0061 2.05334 20.6704 2.1946 20.2118H10.4599C11.3423 20.2118 12.0589 19.4952 12.0589 18.6127V12.573C12.0589 12.0529 12.4827 11.6291 13.0027 11.6291H18.8091C18.9504 12.0877 19.3742 12.4235 19.8778 12.4235C20.4962 12.4235 20.9998 11.9199 20.9998 11.3015C20.9998 10.7979 20.664 10.3741 20.2054 10.2328L20.2075 10.2267ZM2.75763 12.5894C3.46398 13.1073 3.90622 13.093 4.26451 13.0807C4.55524 13.0705 4.71288 13.0664 5.04251 13.3899C5.08141 13.4288 5.12646 13.4697 5.17355 13.5127C4.95857 13.6315 4.72722 13.783 4.47744 13.9652C3.95331 14.3501 3.67486 14.3399 3.38209 14.3296C3.04017 14.3173 2.65117 14.3051 2.1209 14.8292C1.87931 15.0667 1.63362 15.1199 1.45141 15.1199V11.971C1.70938 12.0079 2.1557 12.1451 2.75968 12.5873L2.75763 12.5894ZM1.12178 20.3448C0.863807 20.3448 0.654974 20.136 0.654974 19.878C0.654974 19.6201 0.863807 19.4112 1.12178 19.4112C1.37975 19.4112 1.58858 19.6201 1.58858 19.878C1.58858 20.136 1.37975 20.3448 1.12178 20.3448ZM15.6561 4.32202H14.4318L14.7328 3.26967C14.7492 3.21029 14.7492 3.14887 14.7328 3.0895L14.4318 2.03714H15.6561V4.32202ZM16.3134 3.86955C16.3134 3.80608 16.3134 1.0544 16.3134 1.16496H19.5523V3.86955H16.3134ZM19.8799 11.7622C19.6219 11.7622 19.4131 11.5534 19.4131 11.2954C19.4131 11.0374 19.6219 10.8286 19.8799 10.8286C20.1379 10.8286 20.3467 11.0374 20.3467 11.2954C20.3467 11.5534 20.1379 11.7622 19.8799 11.7622Z"
        fill="#6C5DD3" />
</svg>