<svg width="21" height="21" viewBox="0 0 21 21" fill="none" xmlns="http://www.w3.org/2000/svg">
    <path fill-rule="evenodd" clip-rule="evenodd"
        d="M3.58512 3.40309C3.18608 3.54988 2.7457 3.5106 2.37767 3.28937C1.25913 3.77111 0 2.93996 0 1.71391C0 0.111559 2.03446 -0.622419 3.04549 0.64085C3.56444 0.61604 4.06065 0.886888 4.3253 1.33968C4.58995 1.33348 4.84839 1.41618 5.06135 1.57952C5.35287 1.80281 5.52034 2.14189 5.52034 2.50991C5.52034 3.51474 4.34184 4.05023 3.58512 3.40309ZM2.54453 1.08161C2.38756 0.891635 2.1923 0.655323 1.71399 0.655323C0.316334 0.655323 0.314267 2.77042 1.71399 2.77042C1.93346 2.77042 2.08033 2.70231 2.20026 2.6467C2.35035 2.5771 2.45822 2.52707 2.61337 2.65464C2.95667 2.93755 3.22134 2.8334 3.4414 2.7468C3.62823 2.67328 3.78292 2.61241 3.92626 2.81177C4.22606 3.22321 4.86286 3.00612 4.86286 2.50991C4.86286 2.18531 4.561 1.91859 4.21365 2.01163C4.04825 2.05505 3.87871 1.96408 3.82082 1.80488C3.69263 1.44512 3.32874 1.2363 2.95245 1.30867C2.76415 1.34741 2.66576 1.22833 2.54453 1.08161ZM20.3776 2.64768L19.3608 3.66452L20.667 9.24935C20.6939 9.35893 20.6608 9.47471 20.5802 9.55535L19.9145 10.2211C19.8359 10.2997 19.7243 10.3286 19.6291 10.3121C19.5237 10.2955 19.4348 10.2294 19.3872 10.1343L17.2391 5.78415C16.6444 6.36227 16.2003 6.8144 15.8381 7.1832C15.0694 7.96585 14.6692 8.37323 13.9806 8.8131C13.9809 8.82326 13.9879 8.84821 13.9987 8.88605L13.9987 8.88608C14.0818 9.1792 14.3842 10.2455 13.4265 11.2032C13.2466 11.3831 12.9386 11.2983 12.8765 11.0522L12.4858 9.50779C12.2832 9.56982 12.0805 9.62358 11.8759 9.65872C11.7766 9.67733 11.665 9.64632 11.5864 9.56775C11.5099 9.49125 11.4768 9.38374 11.4954 9.2783C11.5306 9.07361 11.5843 8.87099 11.6464 8.66837L10.1019 8.2776C9.98819 8.24866 9.89722 8.15975 9.86621 8.04604C9.83519 7.93232 9.86827 7.81034 9.95097 7.72764C10.9028 6.77578 11.9762 7.07504 12.2673 7.15618C12.3049 7.16669 12.3295 7.17354 12.339 7.17354C12.7778 6.48665 13.1842 6.08774 13.9637 5.32274C14.3339 4.95944 14.7882 4.51358 15.37 3.91509L11.0199 1.76691C10.9248 1.72142 10.8586 1.63045 10.8421 1.52708C10.8235 1.4237 10.8586 1.31619 10.9331 1.24176L11.5988 0.576006C11.6774 0.497439 11.7952 0.462291 11.9048 0.489169L17.4913 1.79586L18.5085 0.778625C19.1867 0.102539 20.1564 -0.0380543 20.6712 0.468494H20.6733C21.1901 0.997785 21.0537 1.9716 20.3776 2.64768ZM11.7208 1.38235L11.9337 1.16939L16.9455 2.34169L15.86 3.42715L11.7208 1.38235ZM11.8738 8.05224L10.9682 7.82274C11.4609 7.61789 11.8239 7.71924 11.9592 7.75703C11.9824 7.76348 11.9988 7.76808 12.0082 7.76899C11.9606 7.86203 11.9151 7.95714 11.8738 8.05224ZM13.3355 10.1901L13.106 9.28243C13.2012 9.24108 13.2963 9.19559 13.3893 9.14804C13.3901 9.15593 13.3942 9.1705 13.3999 9.19121C13.4362 9.32251 13.5409 9.70076 13.3355 10.1901ZM16.5206 3.67925C13.1719 6.99759 12.676 7.48904 12.2611 8.89353C14.0524 8.36497 19.9 2.19075 19.9289 2.15768C20.2784 1.7483 20.5037 1.32239 20.2597 0.983312C20.0985 0.762085 19.5526 0.660775 18.9737 1.23969C18.0192 2.19418 17.2096 2.99648 16.5207 3.67914L16.5206 3.67925ZM19.7759 9.43543L17.7311 5.29621L18.8187 4.20868L19.991 9.2204L19.778 9.43336L19.7759 9.43543ZM19.4342 17.9504C19.7639 18.2419 20.0582 18.5021 20.6691 18.5021H20.6712C20.8531 18.5021 20.9999 18.6489 20.9999 18.8308C20.9999 19.0128 20.8531 19.1596 20.6712 19.1596C19.8383 19.1596 19.4284 18.806 19.041 18.4718C18.6937 18.1722 18.3643 17.888 17.7642 17.888C17.1643 17.888 16.8355 18.172 16.4885 18.4715C16.1013 18.8058 15.6915 19.1596 14.8573 19.1596C14.0204 19.1596 13.6066 18.8036 13.217 18.4684C12.8701 18.17 12.5424 17.888 11.9524 17.888C11.3623 17.888 11.0341 18.17 10.6868 18.4684C10.2966 18.8036 9.88224 19.1596 9.04539 19.1596C8.20854 19.1596 7.79478 18.8036 7.4051 18.4684C7.05827 18.17 6.7305 17.888 6.14049 17.888C5.55047 17.888 5.22271 18.17 4.87588 18.4684C4.4862 18.8036 4.07244 19.1596 3.23559 19.1596C2.40101 19.1596 1.99126 18.8055 1.60417 18.4711C1.25767 18.1717 0.929337 17.888 0.330692 17.888C0.148749 17.888 0.00195313 17.7412 0.00195313 17.5593C0.00195313 17.3774 0.148749 17.2306 0.330692 17.2306C1.17327 17.2306 1.59246 17.5954 1.98007 17.9327C2.22306 18.1441 2.45363 18.3448 2.76833 18.438C2.50758 18.2143 2.44003 18.0957 1.80086 16.9735C1.44158 16.3427 0.901697 15.3948 0.0453715 13.9328C-0.0125197 13.8315 -0.0125197 13.7054 0.0453715 13.6041C0.103263 13.5028 0.210775 13.4408 0.328625 13.4408H2.63394V7.25879L2.09637 5.43936C2.06743 5.34011 2.08604 5.2326 2.14806 5.1499C2.21009 5.0672 2.30726 5.01758 2.41064 5.01758H6.54366C6.64704 5.01758 6.74421 5.0672 6.80624 5.1499C6.86826 5.2326 6.88687 5.34011 6.85793 5.43936L6.32037 7.25879V13.4408H12.5209L13.5857 12.132C13.6477 12.0555 13.7408 12.01 13.84 12.01H20.667C20.7787 12.01 20.8821 12.0658 20.942 12.1589C21.0041 12.2498 21.0144 12.3677 20.9689 12.469L18.7752 17.4663C19.049 17.6099 19.2473 17.7852 19.4342 17.9504ZM5.74559 6.88043L6.10327 5.67299H2.84896L3.20665 6.88043H5.74559ZM5.66289 7.53791H3.28935V13.4387H5.66289V7.53791ZM13.5817 17.919C13.9282 18.2184 14.2565 18.5021 14.8552 18.5021L14.8531 18.5C15.4325 18.5 15.7843 18.2071 16.1507 17.9021C16.6212 17.5105 17.1157 17.0988 18.1467 17.2616L20.1646 12.6634H13.9972L12.9324 13.9721C12.8703 14.0486 12.7773 14.0941 12.6781 14.0941H0.897199C1.55826 15.1357 1.99447 15.9465 2.32603 16.5628C2.96718 17.7544 3.21703 18.2188 3.94476 18.2188H4.13704C4.25247 18.1365 4.36213 18.0411 4.47521 17.9427C4.86444 17.6042 5.29411 17.2306 6.13842 17.2306C6.97527 17.2306 7.38903 17.5865 7.77871 17.9217C8.12554 18.2201 8.45331 18.5021 9.04332 18.5021C9.63334 18.5021 9.96156 18.2201 10.3089 17.9217C10.6991 17.5865 11.1134 17.2306 11.9503 17.2306C12.7849 17.2306 13.1946 17.5846 13.5817 17.919ZM18.2965 19.8882C18.6006 20.1207 18.8876 20.3401 19.3999 20.3401H19.402C19.8362 20.3401 19.8362 20.9955 19.402 20.9955C18.6675 20.9955 18.3003 20.7157 17.9559 20.4532C17.6516 20.2214 17.3651 20.0031 16.8589 20.0031C16.3537 20.0031 16.0696 20.2205 15.7673 20.4519C15.4239 20.7147 15.057 20.9955 14.3158 20.9955C13.5789 20.9955 13.2195 20.7179 12.8809 20.4564C12.5792 20.2234 12.2939 20.0031 11.7727 20.0031C11.2516 20.0031 10.9663 20.2234 10.6646 20.4564C10.326 20.7179 9.96661 20.9955 9.22966 20.9955C8.49075 20.9955 8.12795 20.7165 7.7871 20.4543C7.48512 20.2221 7.20037 20.0031 6.68658 20.0031C6.16837 20.0031 5.92816 20.1898 5.62621 20.4244L5.61766 20.431C4.63558 21.1981 3.6535 21.1981 2.67141 20.431L2.67104 20.4308C2.36522 20.1911 2.12537 20.0031 1.60249 20.0031C1.16831 20.0031 1.16831 19.3477 1.60249 19.3477C2.33399 19.3477 2.6954 19.6252 3.03596 19.8868C3.33938 20.1198 3.62624 20.3401 4.1435 20.3401C4.66138 20.3401 4.94969 20.1192 5.25431 19.8859C5.59547 19.6246 5.95707 19.3477 6.68452 19.3477C7.41489 19.3477 7.78229 19.6269 8.12735 19.8891C8.43283 20.1212 8.72079 20.3401 9.22759 20.3401C9.7344 20.3401 10.0224 20.1212 10.3278 19.8891C10.6729 19.6269 11.0403 19.3477 11.7707 19.3477C12.501 19.3477 12.8684 19.6269 13.2135 19.8891C13.519 20.1212 13.8069 20.3401 14.3138 20.3401C14.8199 20.3401 15.1065 20.1218 15.4107 19.8899C15.7552 19.6275 16.1224 19.3477 16.8568 19.3477C17.5896 19.3477 17.9539 19.6262 18.2965 19.8882Z"
        fill="#6C5DD3" />
</svg>