<svg width="23" height="23" viewBox="0 0 23 23" fill="none" xmlns="http://www.w3.org/2000/svg">
    <path fill-rule="evenodd" clip-rule="evenodd"
        d="M6.29621 8.07032H14.7038C14.8854 8.07032 15.0311 7.92265 15.0311 7.74304V0.327283C15.0311 0.145681 14.8834 0 14.7038 0H6.29621C6.11461 0 5.96893 0.147677 5.96893 0.327283V7.74104C5.96893 7.92265 6.1166 8.06833 6.29621 8.06833V8.07032ZM11.5287 0.656562V1.99363L10.6347 1.59251C10.5489 1.55459 10.4531 1.55459 10.3673 1.59251L9.47325 1.99363V0.656562H11.5287ZM6.62549 0.656562H8.81669V2.49853C8.81669 2.61028 8.87257 2.71406 8.96636 2.77392C9.06015 2.83379 9.1779 2.84377 9.27967 2.79787L10.501 2.25107L11.7223 2.79787C11.8221 2.84178 11.9398 2.83579 12.0356 2.77392C12.1294 2.71406 12.1853 2.61028 12.1853 2.49853V0.656562H14.3765V7.41376H6.62349V0.656562H6.62549ZM1.31312 17.0926H9.71871C9.90032 17.0926 10.046 16.9449 10.046 16.7653V9.05417C10.046 8.87257 9.89832 8.72688 9.71871 8.72688H1.31312C1.13152 8.72688 0.985841 8.87456 0.985841 9.05417V16.7653C0.985841 16.9469 1.13352 17.0926 1.31312 17.0926ZM6.69533 9.38145V10.96L5.65162 10.493C5.60971 10.4751 5.56381 10.4651 5.51791 10.4651C5.47201 10.4651 5.42612 10.4751 5.38421 10.493L4.34049 10.96V9.38145H6.69533ZM1.64041 9.38145H3.68194V11.4669C3.68194 11.5786 3.73781 11.6824 3.83161 11.7423C3.9254 11.8041 4.04314 11.8121 4.14492 11.7662L5.51791 11.1516L6.89091 11.7662C6.93281 11.7842 6.97871 11.7942 7.02461 11.7942C7.08648 11.7942 7.14834 11.7762 7.20222 11.7423C7.29602 11.6824 7.3519 11.5786 7.3519 11.4669V9.38145H9.39343V16.436H1.64041V9.38145ZM20.6727 20.3434H17.6154V18.703H20.6727C20.8543 18.703 21 18.5554 21 18.3758C21 18.1961 20.8523 18.0485 20.6727 18.0485H0.327283C0.145681 18.0485 0 18.1961 0 18.3758C0 18.5554 0.147677 18.703 0.327283 18.703H3.38459V20.3434H0.327283C0.145681 20.3434 0 20.4911 0 20.6707C0 20.8503 0.147677 20.998 0.327283 20.998H20.6727C20.8543 20.998 21 20.8503 21 20.6707C21 20.4911 20.8523 20.3434 20.6727 20.3434ZM16.9589 20.3434H10.8283V18.703H16.9589V20.3434ZM4.04314 18.703H10.1737V20.3434H4.04314V18.703ZM10.954 9.05417C10.954 8.87456 11.0997 8.72688 11.2813 8.72688H19.6889C19.8685 8.72688 20.0162 8.87257 20.0162 9.05417V16.7653C20.0162 16.9449 19.8705 17.0926 19.6889 17.0926H11.2813C11.1017 17.0926 10.954 16.9469 10.954 16.7653V9.05417ZM11.6086 16.438H19.3596L19.3636 16.436V9.38145H17.3221V11.4669C17.3221 11.5786 17.2662 11.6824 17.1724 11.7423C17.0786 11.8021 16.9609 11.8101 16.8591 11.7662L15.4861 11.1516L14.1131 11.7662C14.0073 11.8121 13.8916 11.8021 13.7998 11.7423C13.706 11.6824 13.6501 11.5786 13.6501 11.4669V9.38145H11.6086V16.438ZM16.6615 10.962V9.38345H14.3047V10.962C14.6897 10.793 14.9341 10.6809 15.0957 10.6068L15.0957 10.6068L15.0958 10.6068C15.3656 10.483 15.4047 10.4651 15.4821 10.4651C15.5586 10.4651 15.5787 10.4742 15.8386 10.5933C15.9987 10.6666 16.2499 10.7817 16.6615 10.962ZM3.49235 14.7138H4.16687V15.3703H3.49235V14.7138ZM5.85318 14.7138H5.17866V15.3703H5.85318V14.7138ZM6.86496 14.7138H7.53949V15.3703H6.86496V14.7138ZM14.135 14.7138H13.4605V15.3703H14.135V14.7138ZM15.1468 14.7138H15.8213V15.3703H15.1468V14.7138ZM17.5077 14.7138H16.8331V15.3703H17.5077V14.7138ZM8.47544 5.6596H9.14996V6.31617H8.47544V5.6596ZM10.8383 5.6596H10.1637V6.31617H10.8383V5.6596ZM11.85 5.6596H12.5246V6.31617H11.85V5.6596Z"
        fill="#6C5DD3" />
</svg>