<svg width="23" height="23" viewBox="0 0 23 23" fill="none" xmlns="http://www.w3.org/2000/svg">
    <path fill-rule="evenodd" clip-rule="evenodd"
        d="M23.6302 14.746C22.5371 14.746 21.9678 15.1717 21.4668 15.5463L21.4654 15.5473C21.2592 15.7019 21.0648 15.8449 20.8399 15.9573C21.6271 14.4087 23.0328 11.7237 23.6818 10.489C23.8036 10.2571 23.7942 9.98767 23.6607 9.7651C23.5248 9.54252 23.2905 9.40898 23.0281 9.40898H18.4759V7.06376C18.4759 6.4429 17.9722 5.93918 17.3513 5.93918H13.4785V2.24682C13.4785 2.04064 13.3099 1.87196 13.1037 1.87196H10.1962C9.99001 1.87196 9.82132 2.04064 9.82132 2.24682V5.93918H8.05245V0.37486C8.05245 0.168687 7.88377 0 7.6776 0H4.77009C4.56392 0 4.39523 0.168687 4.39523 0.37486V5.93918H3.30579C2.68493 5.93918 2.18122 6.4429 2.18122 7.06376V9.40898H0.88092C0.64429 9.40898 0.419374 9.52378 0.281145 9.7159C0.142915 9.90801 0.105429 10.1564 0.180401 10.3836L1.74778 15.0436C1.39401 14.8726 0.960578 14.7484 0.37486 14.7484C0.168687 14.7484 0 14.9171 0 15.1232C0 15.3294 0.168687 15.4981 0.37486 15.4981C1.21762 15.4981 1.62062 15.7999 2.08638 16.1486L2.0875 16.1494L2.09206 16.1528C2.59232 16.5269 3.15917 16.9507 4.24997 16.9507C5.32641 16.9507 5.85864 16.5565 6.3686 16.1788C6.8376 15.8315 7.28776 15.4981 8.12508 15.4981C8.96365 15.4981 9.4166 15.8325 9.88786 16.1804C10.3988 16.5576 10.9313 16.9507 12.0002 16.9507C13.0691 16.9507 13.6016 16.5576 14.1125 16.1804C14.5838 15.8325 15.0367 15.4981 15.8753 15.4981C16.7161 15.4981 17.1191 15.7984 17.5858 16.1461L17.5903 16.1494L17.5948 16.1528C18.0951 16.5269 18.662 16.9507 19.7551 16.9507C19.8605 16.9507 19.9566 16.9437 20.0527 16.9366L20.0614 16.9388L20.0737 16.9424C20.0878 16.9465 20.1019 16.9507 20.1159 16.9507C20.1721 16.9507 20.226 16.9343 20.2776 16.9109C21.0413 16.8007 21.5052 16.4587 21.9199 16.1494L21.921 16.1486C22.3868 15.7999 22.7898 15.4981 23.6349 15.4981C23.8411 15.4981 24.0098 15.3294 24.0098 15.1232C24.0098 14.9171 23.8411 14.7484 23.6349 14.7484L23.6302 14.746ZM12.7265 2.62168V3.32454H10.5687V2.62168H12.7265ZM10.5687 4.07426H12.7265V5.93918H10.5687V4.07426ZM7.30039 0.747377V1.50647H5.14261V0.747377H7.30039ZM5.14261 2.25619H7.30039V5.93684H5.14261V2.25619ZM2.92859 7.06142C2.92859 6.85525 3.09728 6.68656 3.30345 6.68656H17.349C17.5551 6.68656 17.7238 6.85525 17.7238 7.06142V9.40664H2.93093V7.06142H2.92859ZM23.0164 10.1376C22.6532 10.8288 22.0535 11.9744 21.4584 13.1201H1.88601L0.88092 10.154C3.59366 10.1521 5.17309 10.151 5.9912 10.1506C1.28664 10.1549 2.25819 10.1544 3.92013 10.153C5.58214 10.1517 7.93458 10.1495 5.9912 10.1506C8.96986 10.1478 14.2239 10.143 23.0187 10.1353L23.0164 10.1376ZM15.873 14.7437C14.7927 14.7437 14.2619 15.138 13.7534 15.5157C13.2859 15.863 12.8373 16.1963 11.9979 16.1963C11.1565 16.1963 10.7034 15.8614 10.2323 15.5133C9.72216 15.1363 9.19093 14.7437 8.12274 14.7437C7.05455 14.7437 6.52332 15.1363 6.01322 15.5133C5.54212 15.8614 5.08903 16.1963 4.24763 16.1963C3.54477 16.1963 3.14882 15.9854 2.76459 15.7137L2.13904 13.8722H21.0695C20.5915 14.7929 20.1534 15.6457 19.8816 16.1916C19.8597 16.1916 19.8389 16.1933 19.8179 16.195L19.8178 16.195H19.8178H19.8178H19.8177C19.7961 16.1968 19.7742 16.1986 19.7504 16.1986C18.9097 16.1986 18.5066 15.8983 18.0399 15.5506L18.0354 15.5473L18.0309 15.5439C17.5306 15.1699 16.9638 14.746 15.8706 14.746L15.873 14.7437ZM5.20576 7.6732H5.93205C6.13822 7.6732 6.30691 7.84189 6.30691 8.04806C6.30691 8.25423 6.13822 8.42292 5.93205 8.42292H5.20576C4.99958 8.42292 4.8309 8.25423 4.8309 8.04806C4.8309 7.84189 4.99958 7.6732 5.20576 7.6732ZM8.37836 7.6732H9.10465C9.31082 7.6732 9.47951 7.84189 9.47951 8.04806C9.47951 8.25423 9.31082 8.42292 9.10465 8.42292H8.37836C8.17218 8.42292 8.0035 8.25423 8.0035 8.04806C8.0035 7.84189 8.17218 7.6732 8.37836 7.6732ZM12.2791 7.6732H11.5529C11.3467 7.6732 11.178 7.84189 11.178 8.04806C11.178 8.25423 11.3467 8.42292 11.5529 8.42292H12.2791C12.4853 8.42292 12.654 8.25423 12.654 8.04806C12.654 7.84189 12.4853 7.6732 12.2791 7.6732ZM14.7251 7.6732H15.4514C15.6575 7.6732 15.8262 7.84189 15.8262 8.04806C15.8262 8.25423 15.6575 8.42292 15.4514 8.42292H14.7251C14.5189 8.42292 14.3502 8.25423 14.3502 8.04806C14.3502 7.84189 14.5189 7.6732 14.7251 7.6732ZM21.5108 17.9026C22.0195 17.525 22.5503 17.1309 23.6302 17.1309C24.1269 17.1309 24.1269 17.8806 23.6302 17.8806C22.7877 17.8806 22.3345 18.2155 21.8634 18.5637C21.3533 18.9407 20.8221 19.3332 19.7528 19.3332C18.6824 19.3332 18.1493 18.9399 17.6379 18.5626C17.1666 18.2148 16.7136 17.8806 15.8753 17.8806C15.0367 17.8806 14.5838 18.215 14.1125 18.5629C13.6016 18.9401 13.0691 19.3332 12.0002 19.3332C10.9313 19.3332 10.3988 18.9401 9.88786 18.5629C9.4166 18.215 8.96365 17.8806 8.12508 17.8806C7.28776 17.8806 6.8376 18.214 6.3686 18.5614C5.85864 18.939 5.32641 19.3332 4.24997 19.3332C3.15916 19.3332 2.59231 18.9094 2.09206 18.5354L2.0875 18.532L2.08638 18.5311C1.62062 18.1824 1.21762 17.8806 0.37486 17.8806C0.168687 17.8806 0 17.712 0 17.5058C0 17.2996 0.168687 17.1309 0.37486 17.1309C1.46566 17.1309 2.03251 17.5547 2.53277 17.9288L2.53733 17.9322L2.53845 17.933C3.00421 18.2818 3.40721 18.5835 4.24997 18.5835C5.09137 18.5835 5.54446 18.2487 6.01556 17.9005C6.52567 17.5235 7.05689 17.1309 8.12508 17.1309C9.19328 17.1309 9.7245 17.5235 10.2346 17.9005C10.7057 18.2487 11.1588 18.5835 12.0002 18.5835C12.8411 18.5835 13.2931 18.2491 13.7633 17.9011C14.273 17.5239 14.8041 17.1309 15.8753 17.1309C16.9462 17.1309 17.4773 17.5237 17.9872 17.9008C18.4579 18.2488 18.9104 18.5835 19.7528 18.5835C20.5936 18.5835 21.0428 18.25 21.5108 17.9026ZM3.92198 12.0169H5.37456C5.58073 12.0169 5.74942 11.8482 5.74942 11.642C5.74942 11.4359 5.58073 11.2672 5.37456 11.2672H3.92198C3.7158 11.2672 3.54712 11.4359 3.54712 11.642C3.54712 11.8482 3.7158 12.0169 3.92198 12.0169ZM10.278 12.0169H8.82543C8.61926 12.0169 8.45057 11.8482 8.45057 11.642C8.45057 11.4359 8.61926 11.2672 8.82543 11.2672H10.278C10.4842 11.2672 10.6529 11.4359 10.6529 11.642C10.6529 11.8482 10.4842 12.0169 10.278 12.0169ZM13.727 12.0169H15.1796C15.3858 12.0169 15.5544 11.8482 15.5544 11.642C15.5544 11.4359 15.3858 11.2672 15.1796 11.2672H13.727C13.5208 11.2672 13.3521 11.4359 13.3521 11.642C13.3521 11.8482 13.5208 12.0169 13.727 12.0169ZM20.083 12.0169H18.6305C18.4243 12.0169 18.2556 11.8482 18.2556 11.642C18.2556 11.4359 18.4243 11.2672 18.6305 11.2672H20.083C20.2892 11.2672 20.4579 11.4359 20.4579 11.642C20.4579 11.8482 20.2892 12.0169 20.083 12.0169Z"
        fill="#6C5DD3" />
</svg>