<svg width="28" height="28" viewBox="0 0 28 28" fill="none" xmlns="http://www.w3.org/2000/svg">
<path d="M8.02426 15.319L7.676 18.4584C7.61946 18.9718 7.79598 19.475 8.1607 19.8395C8.48056 20.1593 8.90711 20.3343 9.35228 20.3343C9.41493 20.3343 12.6815 19.9759 12.6815 19.9759C13.0616 19.9334 13.4194 19.7614 13.6894 19.4912L27.5059 5.67504C28.1647 5.01621 28.1647 3.94461 27.5059 3.28581L24.7147 0.494714C24.0567 -0.164905 22.9834 -0.164905 22.3254 0.494714L18.6039 4.21622L4.7568 4.21649C2.13363 4.21649 0 6.35007 0 8.97319V23.2433C0 25.8664 2.13363 28 4.7568 28H19.0272C21.6504 28 23.784 25.8664 23.784 23.2433V14.0778C23.784 13.6396 23.4294 13.2849 22.9911 13.2849C22.5529 13.2849 22.1982 13.6396 22.1982 14.0778V23.2433C22.1982 24.9923 20.7759 26.4145 19.0269 26.4145H4.75653C3.00752 26.4145 1.58524 24.9923 1.58524 23.2433V8.97319C1.58524 7.22422 3.00752 5.80197 4.75653 5.80197H17.0175L8.50829 14.311C8.23806 14.5812 8.06632 14.9388 8.02358 15.3189L8.02426 15.319ZM9.62996 15.4321L19.4595 5.60274C19.4893 5.57699 19.5153 5.55098 19.541 5.52125L23.4466 1.61579C23.4668 1.59562 23.4938 1.58553 23.5201 1.58553C23.5464 1.58553 23.5735 1.59562 23.5936 1.61579L26.3848 4.40689C26.4251 4.44724 26.4251 4.51386 26.3848 4.55395L12.5683 18.3701C12.5521 18.3863 12.5296 18.3972 12.5065 18.3996L9.36704 18.7479C9.33599 18.7526 9.30519 18.7417 9.28184 18.7184C9.25848 18.695 9.24866 18.6666 9.25237 18.6332L9.62996 15.4321Z" fill="#F2F2F2"/>
</svg>
