<svg width="21" height="16" viewBox="0 0 21 16" fill="none" xmlns="http://www.w3.org/2000/svg">
<path fill-rule="evenodd" clip-rule="evenodd" d="M19.8897 12.2037C18.985 12.2037 18.5139 12.5559 18.0992 12.866L18.0981 12.8668C17.9274 12.9948 17.7665 13.1131 17.5804 13.2061C18.2319 11.9245 19.3952 9.70246 19.9323 8.68064C20.0331 8.48868 20.0254 8.26571 19.9149 8.08151C19.8024 7.89731 19.6085 7.78679 19.3913 7.78679H15.624V5.84591C15.624 5.33209 15.2071 4.91522 14.6933 4.91522H11.4882V1.85944C11.4882 1.68882 11.3486 1.54921 11.178 1.54921H8.77177C8.60114 1.54921 8.46154 1.68882 8.46154 1.85944V4.91522H6.99764V0.310231C6.99764 0.139604 6.85803 0 6.68741 0H4.28118C4.11055 0 3.97095 0.139604 3.97095 0.310231V4.91522H3.06934C2.55552 4.91522 2.13865 5.33209 2.13865 5.84591V7.78679H1.06254C0.866705 7.78679 0.680567 7.8818 0.566169 8.04079C0.451772 8.19978 0.420748 8.40531 0.482795 8.59339L1.77995 12.4499C1.48717 12.3084 1.12846 12.2056 0.643727 12.2056C0.4731 12.2056 0.333496 12.3452 0.333496 12.5159C0.333496 12.6865 0.4731 12.8261 0.643727 12.8261C1.34119 12.8261 1.67471 13.0758 2.06017 13.3644L2.06109 13.3651L2.06487 13.3679C2.47888 13.6775 2.948 14.0282 3.85074 14.0282C4.74159 14.0282 5.18205 13.702 5.60409 13.3895C5.99223 13.102 6.36478 12.8261 7.05774 12.8261C7.75173 12.8261 8.12659 13.1028 8.5166 13.3907C8.93947 13.7029 9.38016 14.0282 10.2648 14.0282C11.1493 14.0282 11.59 13.7029 12.0129 13.3907C12.4029 13.1028 12.7778 12.8261 13.4718 12.8261C14.1676 12.8261 14.5012 13.0746 14.8874 13.3624L14.8911 13.3651L14.8948 13.3679C15.3088 13.6775 15.778 14.0282 16.6826 14.0282C16.7699 14.0282 16.8494 14.0224 16.9289 14.0166C16.9347 14.0179 16.9405 14.0196 16.9463 14.0213C16.958 14.0248 16.9696 14.0282 16.9812 14.0282C17.0278 14.0282 17.0724 14.0147 17.115 13.9953C17.7471 13.9041 18.131 13.6211 18.4742 13.3651L18.4752 13.3644C18.8606 13.0758 19.1941 12.8261 19.8935 12.8261C20.0642 12.8261 20.2038 12.6865 20.2038 12.5159C20.2038 12.3452 20.0642 12.2056 19.8935 12.2056L19.8897 12.2037ZM10.8658 2.16968V2.75136H9.08006V2.16968H10.8658ZM9.08006 3.37182H10.8658V4.91522H9.08006V3.37182ZM6.37524 0.618522V1.24674H4.58947V0.618522H6.37524ZM4.58947 1.8672H6.37524V4.91328H4.58947V1.8672ZM2.75717 5.84397C2.75717 5.67334 2.89678 5.53374 3.0674 5.53374H14.6914C14.862 5.53374 15.0016 5.67334 15.0016 5.84397V7.78485H2.75911V5.84397H2.75717ZM19.3817 8.3898C19.0811 8.96179 18.5847 9.90993 18.0923 10.8581H1.89434L1.06254 8.40337L5.29291 8.40052C1.40043 8.40414 2.20128 8.40369 3.57535 8.40255C4.95061 8.40142 6.9001 8.39961 5.29291 8.40052C7.75822 8.39822 12.1062 8.39429 19.3836 8.38786L19.3817 8.3898ZM13.4698 12.2018C12.5758 12.2018 12.1365 12.5281 11.7157 12.8407C11.3288 13.1281 10.9575 13.4039 10.2628 13.4039C9.56648 13.4039 9.19151 13.1268 8.80163 12.8387C8.37947 12.5267 7.93983 12.2018 7.0558 12.2018C6.17178 12.2018 5.73214 12.5267 5.30998 12.8387C4.9201 13.1268 4.54513 13.4039 3.8488 13.4039C3.26711 13.4039 2.93943 13.2294 2.62145 13.0045L2.10375 11.4805H17.7704C17.3748 12.2425 17.0123 12.9482 16.7874 13.4C16.7692 13.4 16.7519 13.4014 16.7345 13.4029C16.7166 13.4043 16.6984 13.4058 16.6788 13.4058C15.983 13.4058 15.6494 13.1573 15.2632 12.8696L15.2595 12.8668L15.2557 12.864C14.8417 12.5545 14.3726 12.2037 13.4679 12.2037L13.4698 12.2018ZM4.642 6.35029H5.24307C5.4137 6.35029 5.5533 6.4899 5.5533 6.66052C5.5533 6.83115 5.4137 6.97075 5.24307 6.97075H4.642C4.47137 6.97075 4.33177 6.83115 4.33177 6.66052C4.33177 6.4899 4.47137 6.35029 4.642 6.35029ZM7.2675 6.35029H7.86857C8.0392 6.35029 8.1788 6.4899 8.1788 6.66052C8.1788 6.83115 8.0392 6.97075 7.86857 6.97075H7.2675C7.09687 6.97075 6.95727 6.83115 6.95727 6.66052C6.95727 6.4899 7.09687 6.35029 7.2675 6.35029ZM10.496 6.35029H9.89491C9.72428 6.35029 9.58468 6.4899 9.58468 6.66052C9.58468 6.83115 9.72428 6.97075 9.89491 6.97075H10.496C10.6666 6.97075 10.8062 6.83115 10.8062 6.66052C10.8062 6.4899 10.6666 6.35029 10.496 6.35029ZM12.5199 6.35029H13.121C13.2916 6.35029 13.4312 6.4899 13.4312 6.66052C13.4312 6.83115 13.2916 6.97075 13.121 6.97075H12.5199C12.3493 6.97075 12.2097 6.83115 12.2097 6.66052C12.2097 6.4899 12.3493 6.35029 12.5199 6.35029ZM18.1356 14.816C18.5566 14.5035 18.9959 14.1774 19.8897 14.1774C20.3007 14.1774 20.3007 14.7979 19.8897 14.7979C19.1924 14.7979 18.8173 15.075 18.4274 15.3631C18.0053 15.6751 17.5657 16 16.6807 16C15.7949 16 15.3537 15.6745 14.9305 15.3622C14.5404 15.0744 14.1655 14.7979 13.4718 14.7979C12.7778 14.7979 12.4029 15.0746 12.0129 15.3625C11.59 15.6747 11.1493 16 10.2648 16C9.38016 16 8.93947 15.6747 8.5166 15.3625C8.12659 15.0746 7.75173 14.7979 7.05774 14.7979C6.36478 14.7979 5.99223 15.0738 5.60409 15.3612C5.18205 15.6738 4.74159 16 3.85074 16C2.94799 16 2.47887 15.6492 2.06486 15.3397L2.06109 15.3369L2.06017 15.3362C1.67471 15.0476 1.34119 14.7979 0.643727 14.7979C0.4731 14.7979 0.333496 14.6583 0.333496 14.4876C0.333496 14.317 0.4731 14.1774 0.643727 14.1774C1.54647 14.1774 2.01559 14.5281 2.42959 14.8377L2.43337 14.8405L2.43429 14.8412C2.81975 15.1298 3.15327 15.3795 3.85074 15.3795C4.54707 15.3795 4.92204 15.1024 5.31192 14.8143C5.73408 14.5023 6.17372 14.1774 7.05774 14.1774C7.94177 14.1774 8.38141 14.5023 8.80357 14.8143C9.19345 15.1024 9.56842 15.3795 10.2648 15.3795C10.9607 15.3795 11.3347 15.1028 11.7239 14.8148C12.1457 14.5027 12.5852 14.1774 13.4718 14.1774C14.358 14.1774 14.7976 14.5024 15.2195 14.8145C15.6091 15.1026 15.9836 15.3795 16.6807 15.3795C17.3766 15.3795 17.7484 15.1035 18.1356 14.816ZM3.57965 9.94513H4.7818C4.95242 9.94513 5.09203 9.80552 5.09203 9.6349C5.09203 9.46427 4.95242 9.32466 4.7818 9.32466H3.57965C3.40903 9.32466 3.26942 9.46427 3.26942 9.6349C3.26942 9.80552 3.40903 9.94513 3.57965 9.94513ZM8.83986 9.94513H7.63772C7.46709 9.94513 7.32749 9.80552 7.32749 9.6349C7.32749 9.46427 7.46709 9.32466 7.63772 9.32466H8.83986C9.01049 9.32466 9.15009 9.46427 9.15009 9.6349C9.15009 9.80552 9.01049 9.94513 8.83986 9.94513ZM11.6939 9.94513H12.896C13.0666 9.94513 13.2062 9.80552 13.2062 9.6349C13.2062 9.46427 13.0666 9.32466 12.896 9.32466H11.6939C11.5232 9.32466 11.3836 9.46427 11.3836 9.6349C11.3836 9.80552 11.5232 9.94513 11.6939 9.94513ZM16.9546 9.94513H15.7524C15.5818 9.94513 15.4422 9.80552 15.4422 9.6349C15.4422 9.46427 15.5818 9.32466 15.7524 9.32466H16.9546C17.1252 9.32466 17.2648 9.46427 17.2648 9.6349C17.2648 9.80552 17.1252 9.94513 16.9546 9.94513Z" fill="#828282"/>
</svg>
