<svg width="28" height="28" viewBox="0 0 28 28" fill="none" xmlns="http://www.w3.org/2000/svg">
<mask id="path-1-outside-1_149_7633" maskUnits="userSpaceOnUse" x="0" y="0" width="28" height="28" fill="black">
<rect fill="white" width="28" height="28"/>
<path fill-rule="evenodd" clip-rule="evenodd" d="M26.4864 3.58477H23.507C23.0548 3.58477 22.6855 3.95406 22.6855 4.40625V4.86597H21.4797C21.1531 4.86597 20.8341 4.74288 20.5803 4.52181C20.1367 4.13548 19.7814 3.82318 19.4924 3.56912L19.4917 3.56852L19.4916 3.56849L19.4916 3.56842C18.3866 2.59726 18.2503 2.4775 17.8521 2.32618L14.6944 1.13039C14.0311 0.879176 13.2976 0.994735 12.7148 1.44441L9.41631 4.253C7.93162 5.40106 9.93884 7.72732 11.6094 6.42853L13.6392 4.65244C13.9508 5.55681 14.7019 6.65714 16.164 6.8355C16.3901 6.86314 16.5935 6.70236 16.6212 6.47626C16.6488 6.25017 16.488 6.04669 16.2619 6.01905C14.5537 5.81305 14.2974 3.92642 14.2874 3.84855C14.2698 3.69782 14.1693 3.56719 14.0261 3.51443C13.8854 3.45916 13.7247 3.48931 13.6091 3.58979L11.0869 5.79547C10.3081 6.39839 9.30326 5.38096 9.93381 4.8936L13.2323 2.08501C13.5714 1.82124 14.011 1.75341 14.4029 1.90162L17.5607 3.09741C17.8196 3.19545 17.8963 3.26288 18.9233 4.16575L18.9236 4.16602C19.2123 4.41986 19.5761 4.73971 20.0402 5.14482C20.4447 5.49652 20.9572 5.69247 21.4797 5.69247H22.6855V10.6841H21.854C20.9119 10.6841 20.5125 11.174 20.1256 11.6488C19.5152 12.3974 18.6761 13.4224 14.727 13.4224H13.7046C13.6392 13.2616 13.5438 13.1159 13.4232 12.9928C13.6568 12.7516 13.8025 12.4225 13.8025 12.0608C13.8025 11.699 13.6568 11.3699 13.4232 11.1288C13.6568 10.8876 13.8025 10.5585 13.8025 10.1968C13.8025 9.83502 13.6568 9.50593 13.4232 9.26476C13.6568 9.02359 13.8025 8.6945 13.8025 8.33275C13.8025 7.59166 13.1996 6.98874 12.4585 6.98874H9.1048C8.36371 6.98874 7.7608 7.59166 7.7608 8.33275C7.7608 8.54879 7.81858 8.75228 7.90901 8.93316C7.38397 9.11654 7.00464 9.61144 7.00464 10.1968C7.00464 10.7821 7.38397 11.277 7.90901 11.4604C7.81606 11.6413 7.7608 11.8447 7.7608 12.0608C7.7608 12.6637 8.16274 13.1687 8.70788 13.337C8.61995 13.5153 8.5672 13.7138 8.5672 13.9248C8.5672 14.6433 9.13495 15.2286 9.84589 15.2613V20.2002H6.64037C5.95958 20.2002 5.4069 20.7529 5.4069 21.4337V22.7601C5.4069 22.9862 5.59029 23.1721 5.8189 23.1721H6.74337V23.8328C6.74337 24.285 7.11266 24.6542 7.56485 24.6542H14.7999C15.2521 24.6542 15.6213 24.285 15.6213 23.8328V23.1721H16.5458C16.7719 23.1721 16.9578 22.9887 16.9578 22.7601V21.4337C16.9578 20.7529 16.4051 20.2002 15.7243 20.2002H12.5188V15.2613C13.1192 15.2311 13.6166 14.8091 13.7548 14.2439H14.722C19.0596 14.2439 20.0398 13.0435 20.7558 12.1668L20.7562 12.1663C21.1154 11.7267 21.2963 11.5056 21.8465 11.5056H22.678V12.0507C22.678 12.5029 23.0473 12.8722 23.4995 12.8722H26.4789C26.9311 12.8722 27.3004 12.5029 27.3004 12.0507V4.40876C27.3004 3.95657 26.9311 3.58728 26.4789 3.58728L26.4864 3.58477ZM9.10731 7.80268H12.461C12.7474 7.80268 12.9836 8.03631 12.9836 8.32521C12.9836 8.61411 12.7499 8.84774 12.461 8.84774H9.10731C8.82093 8.84774 8.58478 8.61411 8.58478 8.32521C8.58478 8.03631 8.81841 7.80268 9.10731 7.80268ZM8.35115 9.66671H12.461C12.7474 9.66671 12.9836 9.90034 12.9836 10.1892C12.9836 10.4781 12.7499 10.7118 12.461 10.7118H8.35115C8.06477 10.7118 7.82862 10.4781 7.82862 10.1892C7.82862 9.90034 8.06226 9.66671 8.35115 9.66671ZM9.10731 11.5307H12.461C12.7474 11.5307 12.9836 11.7644 12.9836 12.0533C12.9836 12.3422 12.7499 12.5758 12.461 12.5758H9.10731C8.82093 12.5758 8.58478 12.3422 8.58478 12.0533C8.58478 11.7644 8.81841 11.5307 9.10731 11.5307ZM14.8049 23.8252H7.56987V23.1645H14.8049V23.8252ZM15.7294 21.0166C15.9555 21.0166 16.1414 21.2 16.1414 21.4286V22.3456H6.2334V21.4286C6.2334 21.2025 6.41679 21.0166 6.6454 21.0166H15.7294ZM10.6724 20.1952V15.2638H11.7049V20.1952H10.6724ZM12.461 14.4398H9.91372C9.62733 14.4398 9.39119 14.2062 9.39119 13.9173C9.39119 13.6284 9.62482 13.3947 9.91372 13.3947H12.461C12.7474 13.3947 12.9836 13.6284 12.9836 13.9173C12.9836 14.2062 12.7499 14.4398 12.461 14.4398ZM23.507 12.0457V4.40876H26.4864V12.0482H23.507V12.0457ZM24.9986 8.85776C24.4384 8.85776 23.9837 9.31246 23.9837 9.87267C23.9837 10.4329 24.4384 10.8876 24.9986 10.8876C25.5588 10.8876 26.0135 10.4329 26.0135 9.87267C26.0135 9.31246 25.5588 8.85776 24.9986 8.85776ZM24.9986 10.0661C24.8906 10.0661 24.8052 9.97818 24.8052 9.87267C24.8052 9.76716 24.8931 9.67924 24.9986 9.67924C25.1041 9.67924 25.1921 9.76716 25.1921 9.87267C25.1921 9.97818 25.1041 10.0661 24.9986 10.0661ZM20.674 18.4871L19.1717 19.5899C18.9883 19.7231 18.7321 19.6854 18.5964 19.502C18.4608 19.3186 18.501 19.0624 18.6843 18.9267L20.1866 17.8239C20.37 17.6882 20.6262 17.7284 20.7619 17.9118C20.8976 18.0952 20.8574 18.3514 20.674 18.4871ZM19.1717 22.4335C18.9883 22.2979 18.7321 22.3381 18.5964 22.5215C18.4608 22.7049 18.501 22.9611 18.6843 23.0968L20.1866 24.1996C20.3675 24.3327 20.6262 24.2951 20.7619 24.1117C20.8976 23.9283 20.8574 23.672 20.674 23.5364L19.1717 22.4335ZM18.931 20.5996H20.9658C21.1944 20.5996 21.3778 20.783 21.3778 21.0116C21.3778 21.2402 21.1919 21.4236 20.9658 21.4236H18.931C18.7024 21.4236 18.519 21.2402 18.519 21.0116C18.519 20.783 18.7049 20.5996 18.931 20.5996ZM3.20262 19.5899C3.3835 19.7231 3.64225 19.6854 3.77791 19.502C3.91356 19.3186 3.87337 19.0624 3.68998 18.9267L2.18771 17.8239C2.00432 17.6882 1.74808 17.7284 1.61242 17.9118C1.47677 18.0952 1.51696 18.3514 1.70035 18.4871L3.20262 19.5899ZM1.70035 23.5364L3.20262 22.4335C3.38601 22.2979 3.64225 22.3381 3.77791 22.5215C3.91356 22.7049 3.87337 22.9611 3.68998 23.0968L2.18771 24.1996C2.00432 24.3327 1.74808 24.2951 1.61242 24.1117C1.47677 23.9283 1.51696 23.672 1.70035 23.5364ZM3.44684 20.5996H1.41199C1.1859 20.5996 1 20.783 1 21.0116C1 21.2402 1.18339 21.4236 1.41199 21.4236H3.44684C3.67294 21.4236 3.85884 21.2402 3.85884 21.0116C3.85884 20.783 3.67545 20.5996 3.44684 20.5996ZM7.6046 26.4882H14.7718C15.0004 26.4882 15.1838 26.6716 15.1838 26.9002C15.1838 27.1288 14.9979 27.3122 14.7718 27.3122H7.6046C7.376 27.3122 7.19261 27.1288 7.19261 26.9002C7.19261 26.6716 7.37851 26.4882 7.6046 26.4882Z"/>
</mask>
<path fill-rule="evenodd" clip-rule="evenodd" d="M26.4864 3.58477H23.507C23.0548 3.58477 22.6855 3.95406 22.6855 4.40625V4.86597H21.4797C21.1531 4.86597 20.8341 4.74288 20.5803 4.52181C20.1367 4.13548 19.7814 3.82318 19.4924 3.56912L19.4917 3.56852L19.4916 3.56849L19.4916 3.56842C18.3866 2.59726 18.2503 2.4775 17.8521 2.32618L14.6944 1.13039C14.0311 0.879176 13.2976 0.994735 12.7148 1.44441L9.41631 4.253C7.93162 5.40106 9.93884 7.72732 11.6094 6.42853L13.6392 4.65244C13.9508 5.55681 14.7019 6.65714 16.164 6.8355C16.3901 6.86314 16.5935 6.70236 16.6212 6.47626C16.6488 6.25017 16.488 6.04669 16.2619 6.01905C14.5537 5.81305 14.2974 3.92642 14.2874 3.84855C14.2698 3.69782 14.1693 3.56719 14.0261 3.51443C13.8854 3.45916 13.7247 3.48931 13.6091 3.58979L11.0869 5.79547C10.3081 6.39839 9.30326 5.38096 9.93381 4.8936L13.2323 2.08501C13.5714 1.82124 14.011 1.75341 14.4029 1.90162L17.5607 3.09741C17.8196 3.19545 17.8963 3.26288 18.9233 4.16575L18.9236 4.16602C19.2123 4.41986 19.5761 4.73971 20.0402 5.14482C20.4447 5.49652 20.9572 5.69247 21.4797 5.69247H22.6855V10.6841H21.854C20.9119 10.6841 20.5125 11.174 20.1256 11.6488C19.5152 12.3974 18.6761 13.4224 14.727 13.4224H13.7046C13.6392 13.2616 13.5438 13.1159 13.4232 12.9928C13.6568 12.7516 13.8025 12.4225 13.8025 12.0608C13.8025 11.699 13.6568 11.3699 13.4232 11.1288C13.6568 10.8876 13.8025 10.5585 13.8025 10.1968C13.8025 9.83502 13.6568 9.50593 13.4232 9.26476C13.6568 9.02359 13.8025 8.6945 13.8025 8.33275C13.8025 7.59166 13.1996 6.98874 12.4585 6.98874H9.1048C8.36371 6.98874 7.7608 7.59166 7.7608 8.33275C7.7608 8.54879 7.81858 8.75228 7.90901 8.93316C7.38397 9.11654 7.00464 9.61144 7.00464 10.1968C7.00464 10.7821 7.38397 11.277 7.90901 11.4604C7.81606 11.6413 7.7608 11.8447 7.7608 12.0608C7.7608 12.6637 8.16274 13.1687 8.70788 13.337C8.61995 13.5153 8.5672 13.7138 8.5672 13.9248C8.5672 14.6433 9.13495 15.2286 9.84589 15.2613V20.2002H6.64037C5.95958 20.2002 5.4069 20.7529 5.4069 21.4337V22.7601C5.4069 22.9862 5.59029 23.1721 5.8189 23.1721H6.74337V23.8328C6.74337 24.285 7.11266 24.6542 7.56485 24.6542H14.7999C15.2521 24.6542 15.6213 24.285 15.6213 23.8328V23.1721H16.5458C16.7719 23.1721 16.9578 22.9887 16.9578 22.7601V21.4337C16.9578 20.7529 16.4051 20.2002 15.7243 20.2002H12.5188V15.2613C13.1192 15.2311 13.6166 14.8091 13.7548 14.2439H14.722C19.0596 14.2439 20.0398 13.0435 20.7558 12.1668L20.7562 12.1663C21.1154 11.7267 21.2963 11.5056 21.8465 11.5056H22.678V12.0507C22.678 12.5029 23.0473 12.8722 23.4995 12.8722H26.4789C26.9311 12.8722 27.3004 12.5029 27.3004 12.0507V4.40876C27.3004 3.95657 26.9311 3.58728 26.4789 3.58728L26.4864 3.58477ZM9.10731 7.80268H12.461C12.7474 7.80268 12.9836 8.03631 12.9836 8.32521C12.9836 8.61411 12.7499 8.84774 12.461 8.84774H9.10731C8.82093 8.84774 8.58478 8.61411 8.58478 8.32521C8.58478 8.03631 8.81841 7.80268 9.10731 7.80268ZM8.35115 9.66671H12.461C12.7474 9.66671 12.9836 9.90034 12.9836 10.1892C12.9836 10.4781 12.7499 10.7118 12.461 10.7118H8.35115C8.06477 10.7118 7.82862 10.4781 7.82862 10.1892C7.82862 9.90034 8.06226 9.66671 8.35115 9.66671ZM9.10731 11.5307H12.461C12.7474 11.5307 12.9836 11.7644 12.9836 12.0533C12.9836 12.3422 12.7499 12.5758 12.461 12.5758H9.10731C8.82093 12.5758 8.58478 12.3422 8.58478 12.0533C8.58478 11.7644 8.81841 11.5307 9.10731 11.5307ZM14.8049 23.8252H7.56987V23.1645H14.8049V23.8252ZM15.7294 21.0166C15.9555 21.0166 16.1414 21.2 16.1414 21.4286V22.3456H6.2334V21.4286C6.2334 21.2025 6.41679 21.0166 6.6454 21.0166H15.7294ZM10.6724 20.1952V15.2638H11.7049V20.1952H10.6724ZM12.461 14.4398H9.91372C9.62733 14.4398 9.39119 14.2062 9.39119 13.9173C9.39119 13.6284 9.62482 13.3947 9.91372 13.3947H12.461C12.7474 13.3947 12.9836 13.6284 12.9836 13.9173C12.9836 14.2062 12.7499 14.4398 12.461 14.4398ZM23.507 12.0457V4.40876H26.4864V12.0482H23.507V12.0457ZM24.9986 8.85776C24.4384 8.85776 23.9837 9.31246 23.9837 9.87267C23.9837 10.4329 24.4384 10.8876 24.9986 10.8876C25.5588 10.8876 26.0135 10.4329 26.0135 9.87267C26.0135 9.31246 25.5588 8.85776 24.9986 8.85776ZM24.9986 10.0661C24.8906 10.0661 24.8052 9.97818 24.8052 9.87267C24.8052 9.76716 24.8931 9.67924 24.9986 9.67924C25.1041 9.67924 25.1921 9.76716 25.1921 9.87267C25.1921 9.97818 25.1041 10.0661 24.9986 10.0661ZM20.674 18.4871L19.1717 19.5899C18.9883 19.7231 18.7321 19.6854 18.5964 19.502C18.4608 19.3186 18.501 19.0624 18.6843 18.9267L20.1866 17.8239C20.37 17.6882 20.6262 17.7284 20.7619 17.9118C20.8976 18.0952 20.8574 18.3514 20.674 18.4871ZM19.1717 22.4335C18.9883 22.2979 18.7321 22.3381 18.5964 22.5215C18.4608 22.7049 18.501 22.9611 18.6843 23.0968L20.1866 24.1996C20.3675 24.3327 20.6262 24.2951 20.7619 24.1117C20.8976 23.9283 20.8574 23.672 20.674 23.5364L19.1717 22.4335ZM18.931 20.5996H20.9658C21.1944 20.5996 21.3778 20.783 21.3778 21.0116C21.3778 21.2402 21.1919 21.4236 20.9658 21.4236H18.931C18.7024 21.4236 18.519 21.2402 18.519 21.0116C18.519 20.783 18.7049 20.5996 18.931 20.5996ZM3.20262 19.5899C3.3835 19.7231 3.64225 19.6854 3.77791 19.502C3.91356 19.3186 3.87337 19.0624 3.68998 18.9267L2.18771 17.8239C2.00432 17.6882 1.74808 17.7284 1.61242 17.9118C1.47677 18.0952 1.51696 18.3514 1.70035 18.4871L3.20262 19.5899ZM1.70035 23.5364L3.20262 22.4335C3.38601 22.2979 3.64225 22.3381 3.77791 22.5215C3.91356 22.7049 3.87337 22.9611 3.68998 23.0968L2.18771 24.1996C2.00432 24.3327 1.74808 24.2951 1.61242 24.1117C1.47677 23.9283 1.51696 23.672 1.70035 23.5364ZM3.44684 20.5996H1.41199C1.1859 20.5996 1 20.783 1 21.0116C1 21.2402 1.18339 21.4236 1.41199 21.4236H3.44684C3.67294 21.4236 3.85884 21.2402 3.85884 21.0116C3.85884 20.783 3.67545 20.5996 3.44684 20.5996ZM7.6046 26.4882H14.7718C15.0004 26.4882 15.1838 26.6716 15.1838 26.9002C15.1838 27.1288 14.9979 27.3122 14.7718 27.3122H7.6046C7.376 27.3122 7.19261 27.1288 7.19261 26.9002C7.19261 26.6716 7.37851 26.4882 7.6046 26.4882Z" fill="#4F4F4F"/>
<path d="M26.4864 3.58477L26.5497 3.77451L26.4864 3.38477V3.58477ZM22.6855 4.86597V5.06597H22.8855V4.86597H22.6855ZM20.5803 4.52181L20.7117 4.37101L20.7117 4.37098L20.5803 4.52181ZM19.4924 3.56912L19.6244 3.4189L19.6242 3.41876L19.4924 3.56912ZM19.4917 3.56852L19.3559 3.71549L19.3598 3.71888L19.4917 3.56852ZM19.4916 3.56849L19.6274 3.42153L19.6241 3.41869L19.4916 3.56849ZM19.4916 3.56842L19.6241 3.41862L19.6236 3.4182L19.4916 3.56842ZM17.8521 2.32618L17.9232 2.13922L17.923 2.13914L17.8521 2.32618ZM14.6944 1.13039L14.6235 1.31742L14.6235 1.31743L14.6944 1.13039ZM12.7148 1.44441L12.5925 1.28588L12.5851 1.29214L12.7148 1.44441ZM9.41631 4.253L9.53879 4.4114L9.54597 4.40528L9.41631 4.253ZM11.6094 6.42853L11.7324 6.5867L11.7411 6.57905L11.6094 6.42853ZM13.6392 4.65244L13.8283 4.5873L13.7315 4.306L13.5075 4.50192L13.6392 4.65244ZM16.164 6.8355L16.1882 6.63698L16.1882 6.63697L16.164 6.8355ZM16.2619 6.01905L16.2862 5.82053L16.2859 5.82049L16.2619 6.01905ZM14.2874 3.84855L14.0887 3.87172L14.089 3.87414L14.2874 3.84855ZM14.0261 3.51443L13.953 3.70062L13.957 3.7021L14.0261 3.51443ZM13.6091 3.58979L13.4779 3.43887L13.4774 3.43924L13.6091 3.58979ZM11.0869 5.79547L11.2095 5.9539L11.2186 5.94602L11.0869 5.79547ZM9.93381 4.8936L10.0563 5.05203L10.0635 5.04588L9.93381 4.8936ZM13.2323 2.08501L13.1094 1.92699L13.1026 1.93274L13.2323 2.08501ZM14.4029 1.90162L14.4738 1.71459L14.4737 1.71456L14.4029 1.90162ZM17.5607 3.09741L17.6316 2.91038L17.6316 2.91037L17.5607 3.09741ZM18.9233 4.16575L19.0555 4.01574L19.0553 4.01554L18.9233 4.16575ZM18.9236 4.16602L18.7913 4.31603L18.7915 4.31623L18.9236 4.16602ZM20.0402 5.14482L19.9087 5.29549L19.909 5.29574L20.0402 5.14482ZM22.6855 5.69247H22.8855V5.49247H22.6855V5.69247ZM22.6855 10.6841V10.8841H22.8855V10.6841H22.6855ZM20.1256 11.6488L20.2806 11.7752L20.2807 11.7751L20.1256 11.6488ZM13.7046 13.4224L13.5193 13.4977L13.5699 13.6224H13.7046V13.4224ZM13.4232 12.9928L13.2796 12.8536L13.144 12.9936L13.2803 13.1328L13.4232 12.9928ZM13.4232 11.1288L13.2796 10.9896L13.1447 11.1288L13.2796 11.2679L13.4232 11.1288ZM13.4232 9.26476L13.2796 9.1256L13.1447 9.26476L13.2796 9.40392L13.4232 9.26476ZM7.90901 8.93316L7.97496 9.12197L8.18955 9.04702L8.0879 8.84371L7.90901 8.93316ZM7.90901 11.4604L8.0869 11.5518L8.19196 11.3474L7.97496 11.2716L7.90901 11.4604ZM8.70788 13.337L8.88727 13.4254L8.99096 13.2151L8.76688 13.1459L8.70788 13.337ZM9.84589 15.2613H10.0459V15.0703L9.85507 15.0615L9.84589 15.2613ZM9.84589 20.2002V20.4002H10.0459V20.2002H9.84589ZM6.74337 23.1721H6.94337V22.9721H6.74337V23.1721ZM15.6213 23.1721V22.9721H15.4213V23.1721H15.6213ZM12.5188 20.2002H12.3188V20.4002H12.5188V20.2002ZM12.5188 15.2613L12.5088 15.0615L12.3188 15.0711V15.2613H12.5188ZM13.7548 14.2439V14.0439H13.5978L13.5605 14.1964L13.7548 14.2439ZM20.7558 12.1668L20.6011 12.04L20.6009 12.0403L20.7558 12.1668ZM20.7562 12.1663L20.9109 12.2931L20.9111 12.2929L20.7562 12.1663ZM22.678 11.5056H22.878V11.3056H22.678V11.5056ZM26.4789 3.58728L26.4156 3.39755L26.4789 3.78728V3.58728ZM7.56987 23.8252H7.36987V24.0252H7.56987V23.8252ZM14.8049 23.8252V24.0252H15.0049V23.8252H14.8049ZM7.56987 23.1645V22.9645H7.36987V23.1645H7.56987ZM14.8049 23.1645H15.0049V22.9645H14.8049V23.1645ZM16.1414 22.3456V22.5456H16.3414V22.3456H16.1414ZM6.2334 22.3456H6.0334V22.5456H6.2334V22.3456ZM10.6724 15.2638V15.0638H10.4724V15.2638H10.6724ZM10.6724 20.1952H10.4724V20.3952H10.6724V20.1952ZM11.7049 15.2638H11.9049V15.0638H11.7049V15.2638ZM11.7049 20.1952V20.3952H11.9049V20.1952H11.7049ZM23.507 4.40876V4.20876H23.307V4.40876H23.507ZM26.4864 4.40876H26.6864V4.20876H26.4864V4.40876ZM26.4864 12.0482V12.2482H26.6864V12.0482H26.4864ZM23.507 12.0482H23.307V12.2482H23.507V12.0482ZM19.1717 19.5899L19.2892 19.7518L19.2901 19.7511L19.1717 19.5899ZM20.674 18.4871L20.7923 18.6483L20.7929 18.6479L20.674 18.4871ZM18.5964 19.502L18.7572 19.383L18.5964 19.502ZM18.6843 18.9267L18.566 18.7655L18.5654 18.7659L18.6843 18.9267ZM20.1866 17.8239L20.305 17.9851L20.3055 17.9847L20.1866 17.8239ZM20.7619 17.9118L20.9227 17.7928L20.7619 17.9118ZM18.5964 22.5215L18.4356 22.4025L18.5964 22.5215ZM19.1717 22.4335L19.0528 22.5943L19.0533 22.5948L19.1717 22.4335ZM18.6843 23.0968L18.5654 23.2575L18.566 23.258L18.6843 23.0968ZM20.1866 24.1996L20.3052 24.0385L20.305 24.0384L20.1866 24.1996ZM20.7619 24.1117L20.6011 23.9927L20.7619 24.1117ZM20.674 23.5364L20.7929 23.3756L20.7923 23.3752L20.674 23.5364ZM3.77791 19.502L3.61712 19.383H3.61712L3.77791 19.502ZM3.20262 19.5899L3.32118 19.4288L3.32098 19.4287L3.20262 19.5899ZM3.68998 18.9267L3.80892 18.7659L3.80833 18.7655L3.68998 18.9267ZM2.18771 17.8239L2.06877 17.9847L2.06935 17.9851L2.18771 17.8239ZM1.61242 17.9118L1.45164 17.7928H1.45164L1.61242 17.9118ZM1.70035 18.4871L1.58141 18.6479L1.582 18.6483L1.70035 18.4871ZM3.20262 22.4335L3.32098 22.5948L3.32156 22.5943L3.20262 22.4335ZM1.70035 23.5364L1.582 23.3752L1.58141 23.3756L1.70035 23.5364ZM3.77791 22.5215L3.93869 22.4025H3.93869L3.77791 22.5215ZM3.68998 23.0968L3.80834 23.258L3.80892 23.2575L3.68998 23.0968ZM2.18771 24.1996L2.30521 24.3614L2.30606 24.3608L2.18771 24.1996ZM1.61242 24.1117L1.77321 23.9927H1.77321L1.61242 24.1117ZM23.507 3.78477H26.4864V3.38477H23.507V3.78477ZM22.8855 4.40625C22.8855 4.06451 23.1653 3.78477 23.507 3.78477V3.38477C22.9444 3.38477 22.4855 3.8436 22.4855 4.40625H22.8855ZM22.8855 4.86597V4.40625H22.4855V4.86597H22.8855ZM21.4797 5.06597H22.6855V4.66597H21.4797V5.06597ZM20.449 4.6726C20.7374 4.92391 21.1026 5.06597 21.4797 5.06597V4.66597C21.2036 4.66597 20.9307 4.56184 20.7117 4.37101L20.449 4.6726ZM19.3603 3.71934C19.6494 3.97342 20.005 4.28598 20.449 4.67263L20.7117 4.37098C20.2685 3.98498 19.9134 3.67295 19.6244 3.4189L19.3603 3.71934ZM19.3598 3.71888L19.3605 3.71948L19.6242 3.41876L19.6235 3.41816L19.3598 3.71888ZM19.3559 3.71541L19.356 3.71544L19.6274 3.4216L19.6273 3.42156L19.3559 3.71541ZM19.359 3.71822L19.3591 3.71829L19.6241 3.41869L19.6241 3.41862L19.359 3.71822ZM17.7811 2.51314C18.1374 2.64852 18.2427 2.73702 19.3595 3.71864L19.6236 3.4182C18.5305 2.45749 18.3633 2.30647 17.9232 2.13922L17.7811 2.51314ZM14.6235 1.31743L17.7813 2.51322L17.923 2.13914L14.7652 0.943353L14.6235 1.31743ZM12.8369 1.60276C13.3671 1.19373 14.0279 1.09183 14.6235 1.31742L14.7652 0.94336C14.0343 0.666521 13.2281 0.795745 12.5926 1.28606L12.8369 1.60276ZM9.54597 4.40528L12.8444 1.59669L12.5851 1.29214L9.28665 4.10073L9.54597 4.40528ZM11.4867 6.27064C10.7478 6.84508 9.94377 6.62337 9.47587 6.12189C9.24091 5.87007 9.10229 5.55802 9.09768 5.25685C9.09319 4.96291 9.21545 4.66114 9.53865 4.41122L9.29397 4.09479C8.87482 4.4189 8.69123 4.83843 8.69773 5.26297C8.70411 5.68027 8.89332 6.08387 9.18341 6.39477C9.76559 7.01874 10.8005 7.31077 11.7322 6.58643L11.4867 6.27064ZM13.5075 4.50192L11.4777 6.27802L11.7411 6.57905L13.7709 4.80295L13.5075 4.50192ZM16.1882 6.63697C14.8324 6.47157 14.1267 5.45358 13.8283 4.5873L13.4502 4.71757C13.7748 5.66005 14.5714 6.8427 16.1397 7.03403L16.1882 6.63697ZM16.4227 6.452C16.4083 6.56959 16.3036 6.65107 16.1882 6.63698L16.1397 7.03403C16.4766 7.0752 16.7788 6.83513 16.8197 6.50053L16.4227 6.452ZM16.2377 6.21757C16.3553 6.23195 16.4368 6.33668 16.4227 6.452L16.8197 6.50053C16.8609 6.16366 16.6208 5.86142 16.2862 5.82053L16.2377 6.21757ZM14.089 3.87414C14.0953 3.92297 14.1661 4.44287 14.4626 4.98212C14.7616 5.52599 15.3004 6.10455 16.238 6.21761L16.2859 5.82049C15.5152 5.72755 15.0717 5.2598 14.8131 4.78939C14.5519 4.31435 14.4895 3.852 14.4857 3.82295L14.089 3.87414ZM13.957 3.7021C14.0278 3.7282 14.0797 3.79411 14.0887 3.87172L14.486 3.82537C14.4599 3.60152 14.3108 3.40617 14.0953 3.32676L13.957 3.7021ZM13.7403 3.74072C13.802 3.68709 13.8845 3.67368 13.953 3.70058L14.0992 3.32828C13.8864 3.24464 13.6473 3.29153 13.4779 3.43887L13.7403 3.74072ZM11.2186 5.94602L13.7408 3.74035L13.4774 3.43924L10.9552 5.64492L11.2186 5.94602ZM9.81151 4.73536C9.59966 4.8991 9.51391 5.12216 9.53975 5.34768C9.56435 5.5623 9.68674 5.75857 9.84894 5.90283C10.1746 6.19251 10.7281 6.32619 11.2093 5.95361L10.9645 5.63732C10.6669 5.86767 10.3286 5.7941 10.1148 5.60395C10.0072 5.5083 9.94797 5.39652 9.93715 5.30214C9.92759 5.21866 9.95269 5.13179 10.0561 5.05185L9.81151 4.73536ZM13.1026 1.93274L9.80415 4.74133L10.0635 5.04588L13.3619 2.23729L13.1026 1.93274ZM14.4737 1.71456C14.0152 1.54114 13.5024 1.62152 13.1095 1.92714L13.3551 2.24288C13.6404 2.02095 14.0069 1.96567 14.3322 2.08869L14.4737 1.71456ZM17.6316 2.91037L14.4738 1.71459L14.3321 2.08866L17.4899 3.28445L17.6316 2.91037ZM19.0553 4.01554C18.0449 3.12727 17.9337 3.02481 17.6316 2.91038L17.4899 3.28444C17.7054 3.3661 17.7476 3.39849 18.7912 4.31596L19.0553 4.01554ZM19.0559 4.01602L19.0555 4.01574L18.791 4.31575L18.7913 4.31603L19.0559 4.01602ZM20.1718 4.99415C19.708 4.58929 19.3443 4.26964 19.0556 4.01582L18.7915 4.31623C19.0803 4.57009 19.4443 4.89014 19.9087 5.29549L20.1718 4.99415ZM21.4797 5.49247C21.0071 5.49247 20.5408 5.3151 20.1715 4.9939L19.909 5.29574C20.3485 5.67794 20.9072 5.89247 21.4797 5.89247V5.49247ZM22.6855 5.49247H21.4797V5.89247H22.6855V5.49247ZM22.8855 10.6841V5.69247H22.4855V10.6841H22.8855ZM21.854 10.8841H22.6855V10.4841H21.854V10.8841ZM20.2807 11.7751C20.4768 11.5345 20.6562 11.3164 20.8945 11.1535C21.126 10.9953 21.4217 10.8841 21.854 10.8841V10.4841C21.3442 10.4841 20.9692 10.6179 20.6688 10.8233C20.3751 11.024 20.1614 11.2883 19.9706 11.5225L20.2807 11.7751ZM14.727 13.6224C16.7163 13.6224 17.9447 13.3647 18.7602 12.9988C19.5838 12.6293 19.9703 12.1557 20.2806 11.7752L19.9706 11.5224C19.6705 11.8905 19.3323 12.3037 18.5965 12.6338C17.8525 12.9676 16.6869 13.2224 14.727 13.2224V13.6224ZM13.7046 13.6224H14.727V13.2224H13.7046V13.6224ZM13.2803 13.1328C13.3826 13.2371 13.4637 13.3608 13.5193 13.4977L13.8899 13.3471C13.8148 13.1624 13.705 12.9947 13.5661 12.8528L13.2803 13.1328ZM13.6025 12.0608C13.6025 12.3678 13.479 12.6477 13.2796 12.8536L13.5668 13.132C13.8346 12.8555 14.0025 12.4773 14.0025 12.0608H13.6025ZM13.2796 11.2679C13.479 11.4738 13.6025 11.7538 13.6025 12.0608H14.0025C14.0025 11.6443 13.8346 11.2661 13.5668 10.9896L13.2796 11.2679ZM13.6025 10.1968C13.6025 10.5038 13.479 10.7837 13.2796 10.9896L13.5668 11.2679C13.8346 10.9915 14.0025 10.6132 14.0025 10.1968H13.6025ZM13.2796 9.40392C13.479 9.60982 13.6025 9.88973 13.6025 10.1968H14.0025C14.0025 9.78031 13.8346 9.40204 13.5668 9.1256L13.2796 9.40392ZM13.6025 8.33275C13.6025 8.63979 13.479 8.9197 13.2796 9.1256L13.5668 9.40392C13.8346 9.12748 14.0025 8.74921 14.0025 8.33275H13.6025ZM12.4585 7.18874C13.0892 7.18874 13.6025 7.70212 13.6025 8.33275H14.0025C14.0025 7.48121 13.3101 6.78874 12.4585 6.78874V7.18874ZM9.1048 7.18874H12.4585V6.78874H9.1048V7.18874ZM7.9608 8.33275C7.9608 7.70212 8.47417 7.18874 9.1048 7.18874V6.78874C8.25326 6.78874 7.5608 7.48121 7.5608 8.33275H7.9608ZM8.0879 8.84371C8.00892 8.68576 7.9608 8.51274 7.9608 8.33275H7.5608C7.5608 8.58485 7.62823 8.8188 7.73013 9.0226L8.0879 8.84371ZM7.20464 10.1968C7.20464 9.70075 7.52609 9.27875 7.97496 9.12197L7.84306 8.74434C7.24186 8.95433 6.80464 9.52213 6.80464 10.1968H7.20464ZM7.97496 11.2716C7.52609 11.1148 7.20464 10.6928 7.20464 10.1968H6.80464C6.80464 10.8714 7.24186 11.4392 7.84306 11.6492L7.97496 11.2716ZM7.9608 12.0608C7.9608 11.8794 8.00713 11.707 8.0869 11.5518L7.73113 11.369C7.625 11.5755 7.5608 11.8101 7.5608 12.0608H7.9608ZM8.76688 13.1459C8.30156 13.0022 7.9608 12.5719 7.9608 12.0608H7.5608C7.5608 12.7556 8.02393 13.3351 8.64888 13.5281L8.76688 13.1459ZM8.7672 13.9248C8.7672 13.7477 8.81138 13.5793 8.88727 13.4254L8.52849 13.2485C8.42852 13.4513 8.3672 13.6799 8.3672 13.9248H8.7672ZM9.85507 15.0615C9.24981 15.0337 8.7672 14.5353 8.7672 13.9248H8.3672C8.3672 14.7513 9.02008 15.4236 9.83671 15.4611L9.85507 15.0615ZM10.0459 20.2002V15.2613H9.64589V20.2002H10.0459ZM6.64037 20.4002H9.84589V20.0002H6.64037V20.4002ZM5.6069 21.4337C5.6069 20.8633 6.07003 20.4002 6.64037 20.4002V20.0002C5.84912 20.0002 5.2069 20.6424 5.2069 21.4337H5.6069ZM5.6069 22.7601V21.4337H5.2069V22.7601H5.6069ZM5.8189 22.9721C5.70154 22.9721 5.6069 22.8765 5.6069 22.7601H5.2069C5.2069 23.0958 5.47904 23.3721 5.8189 23.3721V22.9721ZM6.74337 22.9721H5.8189V23.3721H6.74337V22.9721ZM6.94337 23.8328V23.1721H6.54337V23.8328H6.94337ZM7.56485 24.4542C7.22312 24.4542 6.94337 24.1745 6.94337 23.8328H6.54337C6.54337 24.3954 7.0022 24.8542 7.56485 24.8542V24.4542ZM14.7999 24.4542H7.56485V24.8542H14.7999V24.4542ZM15.4213 23.8328C15.4213 24.1745 15.1416 24.4542 14.7999 24.4542V24.8542C15.3625 24.8542 15.8213 24.3954 15.8213 23.8328H15.4213ZM15.4213 23.1721V23.8328H15.8213V23.1721H15.4213ZM16.5458 22.9721H15.6213V23.3721H16.5458V22.9721ZM16.7578 22.7601C16.7578 22.8774 16.6622 22.9721 16.5458 22.9721V23.3721C16.8816 23.3721 17.1578 23.0999 17.1578 22.7601H16.7578ZM16.7578 21.4337V22.7601H17.1578V21.4337H16.7578ZM15.7243 20.4002C16.2947 20.4002 16.7578 20.8633 16.7578 21.4337H17.1578C17.1578 20.6424 16.5156 20.0002 15.7243 20.0002V20.4002ZM12.5188 20.4002H15.7243V20.0002H12.5188V20.4002ZM12.3188 15.2613V20.2002H12.7188V15.2613H12.3188ZM13.5605 14.1964C13.4432 14.6765 13.0201 15.0359 12.5088 15.0615L12.5289 15.461C13.2184 15.4264 13.7901 14.9417 13.9491 14.2913L13.5605 14.1964ZM14.722 14.0439H13.7548V14.4439H14.722V14.0439ZM20.6009 12.0403C20.2469 12.4737 19.8465 12.9632 19.0124 13.3529C18.1718 13.7457 16.8745 14.0439 14.722 14.0439V14.4439C16.9071 14.4439 18.2687 14.1419 19.1817 13.7153C20.1011 13.2857 20.5487 12.7366 20.9107 12.2933L20.6009 12.0403ZM20.6015 12.0395L20.6011 12.04L20.9104 12.2936L20.9109 12.2931L20.6015 12.0395ZM21.8465 11.3056C21.5406 11.3056 21.3155 11.3682 21.1157 11.5068C20.9289 11.6364 20.7752 11.827 20.6013 12.0398L20.9111 12.2929C21.0964 12.066 21.2128 11.9262 21.3437 11.8354C21.4618 11.7535 21.6022 11.7056 21.8465 11.7056V11.3056ZM22.678 11.3056H21.8465V11.7056H22.678V11.3056ZM22.878 12.0507V11.5056H22.478V12.0507H22.878ZM23.4995 12.6722C23.1577 12.6722 22.878 12.3925 22.878 12.0507H22.478C22.478 12.6134 22.9368 13.0722 23.4995 13.0722V12.6722ZM26.4789 12.6722H23.4995V13.0722H26.4789V12.6722ZM27.1004 12.0507C27.1004 12.3925 26.8206 12.6722 26.4789 12.6722V13.0722C27.0415 13.0722 27.5004 12.6134 27.5004 12.0507H27.1004ZM27.1004 4.40876V12.0507H27.5004V4.40876H27.1004ZM26.4789 3.78728C26.8206 3.78728 27.1004 4.06703 27.1004 4.40876H27.5004C27.5004 3.84611 27.0415 3.38728 26.4789 3.38728V3.78728ZM26.4232 3.39504L26.4156 3.39755L26.5421 3.77702L26.5497 3.77451L26.4232 3.39504ZM12.461 7.60268H9.10731V8.00268H12.461V7.60268ZM13.1836 8.32521C13.1836 7.92523 12.8573 7.60268 12.461 7.60268V8.00268C12.6376 8.00268 12.7836 8.1474 12.7836 8.32521H13.1836ZM12.461 9.04774C12.8604 9.04774 13.1836 8.72457 13.1836 8.32521H12.7836C12.7836 8.50365 12.6395 8.64774 12.461 8.64774V9.04774ZM9.10731 9.04774H12.461V8.64774H9.10731V9.04774ZM8.38478 8.32521C8.38478 8.72519 8.7111 9.04774 9.10731 9.04774V8.64774C8.93076 8.64774 8.78478 8.50303 8.78478 8.32521H8.38478ZM9.10731 7.60268C8.70796 7.60268 8.38478 7.92586 8.38478 8.32521H8.78478C8.78478 8.14677 8.92887 8.00268 9.10731 8.00268V7.60268ZM12.461 9.46671H8.35115V9.8667H12.461V9.46671ZM13.1836 10.1892C13.1836 9.78926 12.8573 9.46671 12.461 9.46671V9.8667C12.6376 9.8667 12.7836 10.0114 12.7836 10.1892H13.1836ZM12.461 10.9118C12.8604 10.9118 13.1836 10.5886 13.1836 10.1892H12.7836C12.7836 10.3677 12.6395 10.5118 12.461 10.5118V10.9118ZM8.35115 10.9118H12.461V10.5118H8.35115V10.9118ZM7.62862 10.1892C7.62862 10.5892 7.95494 10.9118 8.35115 10.9118V10.5118C8.1746 10.5118 8.02862 10.3671 8.02862 10.1892H7.62862ZM8.35115 9.46671C7.9518 9.46671 7.62862 9.78988 7.62862 10.1892H8.02862C8.02862 10.0108 8.17271 9.8667 8.35115 9.8667V9.46671ZM12.461 11.3307H9.10731V11.7307H12.461V11.3307ZM13.1836 12.0533C13.1836 11.6533 12.8573 11.3307 12.461 11.3307V11.7307C12.6376 11.7307 12.7836 11.8754 12.7836 12.0533H13.1836ZM12.461 12.7758C12.8604 12.7758 13.1836 12.4526 13.1836 12.0533H12.7836C12.7836 12.2317 12.6395 12.3758 12.461 12.3758V12.7758ZM9.10731 12.7758H12.461V12.3758H9.10731V12.7758ZM8.38478 12.0533C8.38478 12.4532 8.7111 12.7758 9.10731 12.7758V12.3758C8.93076 12.3758 8.78478 12.2311 8.78478 12.0533H8.38478ZM9.10731 11.3307C8.70796 11.3307 8.38478 11.6539 8.38478 12.0533H8.78478C8.78478 11.8748 8.92887 11.7307 9.10731 11.7307V11.3307ZM7.56987 24.0252H14.8049V23.6252H7.56987V24.0252ZM7.36987 23.1645V23.8252H7.76987V23.1645H7.36987ZM14.8049 22.9645H7.56987V23.3645H14.8049V22.9645ZM15.0049 23.8252V23.1645H14.6049V23.8252H15.0049ZM16.3414 21.4286C16.3414 21.0888 16.0651 20.8166 15.7294 20.8166V21.2166C15.8458 21.2166 15.9414 21.3113 15.9414 21.4286H16.3414ZM16.3414 22.3456V21.4286H15.9414V22.3456H16.3414ZM6.2334 22.5456H16.1414V22.1456H6.2334V22.5456ZM6.0334 21.4286V22.3456H6.4334V21.4286H6.0334ZM6.6454 20.8166C6.30554 20.8166 6.0334 21.0929 6.0334 21.4286H6.4334C6.4334 21.3122 6.52804 21.2166 6.6454 21.2166V20.8166ZM15.7294 20.8166H6.6454V21.2166H15.7294V20.8166ZM10.4724 15.2638V20.1952H10.8724V15.2638H10.4724ZM11.7049 15.0638H10.6724V15.4638H11.7049V15.0638ZM11.9049 20.1952V15.2638H11.5049V20.1952H11.9049ZM10.6724 20.3952H11.7049V19.9952H10.6724V20.3952ZM9.91372 14.6398H12.461V14.2398H9.91372V14.6398ZM9.19119 13.9173C9.19119 14.3173 9.5175 14.6398 9.91372 14.6398V14.2398C9.73716 14.2398 9.59119 14.0951 9.59119 13.9173H9.19119ZM9.91372 13.1947C9.51436 13.1947 9.19119 13.5179 9.19119 13.9173H9.59119C9.59119 13.7388 9.73528 13.5947 9.91372 13.5947V13.1947ZM12.461 13.1947H9.91372V13.5947H12.461V13.1947ZM13.1836 13.9173C13.1836 13.5173 12.8573 13.1947 12.461 13.1947V13.5947C12.6376 13.5947 12.7836 13.7395 12.7836 13.9173H13.1836ZM12.461 14.6398C12.8604 14.6398 13.1836 14.3166 13.1836 13.9173H12.7836C12.7836 14.0957 12.6395 14.2398 12.461 14.2398V14.6398ZM23.307 4.40876V12.0457H23.707V4.40876H23.307ZM26.4864 4.20876H23.507V4.60876H26.4864V4.20876ZM26.6864 12.0482V4.40876H26.2864V12.0482H26.6864ZM23.507 12.2482H26.4864V11.8482H23.507V12.2482ZM23.307 12.0457V12.0482H23.707V12.0457H23.307ZM24.1837 9.87267C24.1837 9.42292 24.5489 9.05776 24.9986 9.05776V8.65776C24.328 8.65776 23.7837 9.202 23.7837 9.87267H24.1837ZM24.9986 10.6876C24.5489 10.6876 24.1837 10.3224 24.1837 9.87267H23.7837C23.7837 10.5433 24.328 11.0876 24.9986 11.0876V10.6876ZM25.8135 9.87267C25.8135 10.3224 25.4484 10.6876 24.9986 10.6876V11.0876C25.6693 11.0876 26.2135 10.5433 26.2135 9.87267H25.8135ZM24.9986 9.05776C25.4484 9.05776 25.8135 9.42292 25.8135 9.87267H26.2135C26.2135 9.202 25.6693 8.65776 24.9986 8.65776V9.05776ZM24.6052 9.87267C24.6052 10.0869 24.7785 10.2661 24.9986 10.2661V9.86611C25.0003 9.86611 25.0024 9.86713 25.0035 9.86817C25.0042 9.86896 25.0052 9.87063 25.0052 9.87267H24.6052ZM24.9986 9.47924C24.7827 9.47924 24.6052 9.65671 24.6052 9.87267H25.0052C25.0052 9.87429 25.0048 9.87576 25.0044 9.87672C25.0041 9.87753 25.0038 9.87779 25.0038 9.87781C25.0037 9.87782 25.0035 9.8781 25.0027 9.87845C25.0017 9.87886 25.0002 9.87924 24.9986 9.87924V9.47924ZM25.3921 9.87267C25.3921 9.6567 25.2146 9.47924 24.9986 9.47924V9.87924C24.997 9.87924 24.9955 9.87886 24.9946 9.87845C24.9938 9.8781 24.9935 9.87782 24.9935 9.87781C24.9935 9.8778 24.9932 9.87753 24.9928 9.87672C24.9924 9.87576 24.9921 9.8743 24.9921 9.87267H25.3921ZM24.9986 10.2661C25.2146 10.2661 25.3921 10.0886 25.3921 9.87267H24.9921C24.9921 9.87105 24.9924 9.86958 24.9928 9.86862C24.9932 9.86781 24.9935 9.86755 24.9935 9.86753C24.9935 9.86752 24.9938 9.86724 24.9946 9.86689C24.9955 9.86648 24.997 9.86611 24.9986 9.86611V10.2661ZM19.2901 19.7511L20.7923 18.6483L20.5556 18.3259L19.0533 19.4287L19.2901 19.7511ZM18.4356 19.6209C18.6372 19.8935 19.0179 19.9487 19.2892 19.7518L19.0542 19.4281C18.9587 19.4974 18.8269 19.4773 18.7572 19.383L18.4356 19.6209ZM18.5654 18.7659C18.2945 18.9663 18.2333 19.3474 18.4356 19.6209L18.7572 19.383C18.6882 19.2898 18.7074 19.1584 18.8033 19.0875L18.5654 18.7659ZM20.0683 17.6626L18.566 18.7655L18.8027 19.0879L20.305 17.9851L20.0683 17.6626ZM20.9227 17.7928C20.7223 17.522 20.3412 17.4607 20.0677 17.6631L20.3055 17.9847C20.3988 17.9157 20.5302 17.9348 20.6011 18.0307L20.9227 17.7928ZM20.7929 18.6479C21.0638 18.4475 21.125 18.0664 20.9227 17.7928L20.6011 18.0307C20.6701 18.124 20.6509 18.2553 20.555 18.3263L20.7929 18.6479ZM18.7572 22.6404C18.8282 22.5445 18.9595 22.5253 19.0528 22.5943L19.2906 22.2728C19.0171 22.0704 18.636 22.1317 18.4356 22.4025L18.7572 22.6404ZM18.8033 22.936C18.7074 22.865 18.6882 22.7337 18.7572 22.6404L18.4356 22.4025C18.2333 22.676 18.2945 23.0572 18.5654 23.2575L18.8033 22.936ZM20.305 24.0384L18.8027 22.9355L18.566 23.258L20.0683 24.3608L20.305 24.0384ZM20.6011 23.9927C20.5311 24.0874 20.3973 24.1063 20.3052 24.0385L20.068 24.3607C20.3377 24.5591 20.7214 24.5027 20.9227 24.2306L20.6011 23.9927ZM20.555 23.6972C20.6509 23.7681 20.6701 23.8995 20.6011 23.9927L20.9227 24.2306C21.125 23.9571 21.0638 23.576 20.7929 23.3756L20.555 23.6972ZM19.0533 22.5948L20.5556 23.6976L20.7923 23.3752L19.2901 22.2723L19.0533 22.5948ZM20.9658 20.3996H18.931V20.7996H20.9658V20.3996ZM21.5778 21.0116C21.5778 20.6725 21.3049 20.3996 20.9658 20.3996V20.7996C21.084 20.7996 21.1778 20.8935 21.1778 21.0116H21.5778ZM20.9658 21.6236C21.3016 21.6236 21.5778 21.3515 21.5778 21.0116H21.1778C21.1778 21.129 21.0823 21.2236 20.9658 21.2236V21.6236ZM18.931 21.6236H20.9658V21.2236H18.931V21.6236ZM18.319 21.0116C18.319 21.3507 18.5919 21.6236 18.931 21.6236V21.2236C18.8128 21.2236 18.719 21.1298 18.719 21.0116H18.319ZM18.931 20.3996C18.5952 20.3996 18.319 20.6717 18.319 21.0116H18.719C18.719 20.8942 18.8146 20.7996 18.931 20.7996V20.3996ZM3.61712 19.383C3.54708 19.4777 3.41331 19.4967 3.32118 19.4288L3.08406 19.751C3.35368 19.9494 3.73741 19.893 3.93869 19.6209L3.61712 19.383ZM3.57104 19.0875C3.66695 19.1584 3.68611 19.2898 3.61712 19.383L3.93869 19.6209C4.14102 19.3474 4.07978 18.9663 3.80892 18.7659L3.57104 19.0875ZM2.06935 17.9851L3.57163 19.0879L3.80833 18.7655L2.30606 17.6626L2.06935 17.9851ZM1.77321 18.0307C1.84416 17.9348 1.97551 17.9157 2.06877 17.9847L2.30665 17.6631C2.03314 17.4607 1.652 17.522 1.45164 17.7928L1.77321 18.0307ZM1.81929 18.3263C1.72338 18.2553 1.70422 18.124 1.77321 18.0307L1.45164 17.7928C1.24931 18.0664 1.31055 18.4475 1.58141 18.6479L1.81929 18.3263ZM3.32098 19.4287L1.8187 18.3259L1.582 18.6483L3.08427 19.7511L3.32098 19.4287ZM3.08427 22.2723L1.582 23.3752L1.81871 23.6976L3.32098 22.5948L3.08427 22.2723ZM3.93869 22.4025C3.73833 22.1317 3.35719 22.0704 3.08368 22.2728L3.32156 22.5943C3.41482 22.5253 3.54617 22.5445 3.61712 22.6404L3.93869 22.4025ZM3.80892 23.2575C4.07978 23.0572 4.14102 22.676 3.93869 22.4025L3.61712 22.6404C3.68611 22.7337 3.66695 22.865 3.57104 22.936L3.80892 23.2575ZM2.30606 24.3608L3.80833 23.258L3.57163 22.9355L2.06935 24.0384L2.30606 24.3608ZM1.45164 24.2306C1.65324 24.5032 2.03393 24.5584 2.30521 24.3614L2.07021 24.0378C1.97472 24.1071 1.84292 24.087 1.77321 23.9927L1.45164 24.2306ZM1.58141 23.3756C1.31055 23.576 1.24931 23.9571 1.45164 24.2306L1.77321 23.9927C1.70423 23.8995 1.72338 23.7681 1.81929 23.6972L1.58141 23.3756ZM1.41199 20.7996H3.44684V20.3996H1.41199V20.7996ZM1.2 21.0116C1.2 20.8942 1.29556 20.7996 1.41199 20.7996V20.3996C1.07624 20.3996 0.8 20.6717 0.8 21.0116H1.2ZM1.41199 21.2236C1.29384 21.2236 1.2 21.1298 1.2 21.0116H0.8C0.8 21.3507 1.07293 21.6236 1.41199 21.6236V21.2236ZM3.44684 21.2236H1.41199V21.6236H3.44684V21.2236ZM3.65884 21.0116C3.65884 21.129 3.56327 21.2236 3.44684 21.2236V21.6236C3.7826 21.6236 4.05884 21.3515 4.05884 21.0116H3.65884ZM3.44684 20.7996C3.56499 20.7996 3.65884 20.8935 3.65884 21.0116H4.05884C4.05884 20.6725 3.78591 20.3996 3.44684 20.3996V20.7996ZM14.7718 26.2882H7.6046V26.6882H14.7718V26.2882ZM15.3838 26.9002C15.3838 26.5611 15.1109 26.2882 14.7718 26.2882V26.6882C14.8899 26.6882 14.9838 26.782 14.9838 26.9002H15.3838ZM14.7718 27.5122C15.1075 27.5122 15.3838 27.24 15.3838 26.9002H14.9838C14.9838 27.0175 14.8882 27.1122 14.7718 27.1122V27.5122ZM7.6046 27.5122H14.7718V27.1122H7.6046V27.5122ZM6.99261 26.9002C6.99261 27.2392 7.26554 27.5122 7.6046 27.5122V27.1122C7.48645 27.1122 7.39261 27.0183 7.39261 26.9002H6.99261ZM7.6046 26.2882C7.26885 26.2882 6.99261 26.5603 6.99261 26.9002H7.39261C7.39261 26.7828 7.48817 26.6882 7.6046 26.6882V26.2882Z" fill="#4F4F4F" mask="url(#path-1-outside-1_149_7633)"/>
</svg>
