<svg width="22" height="12" viewBox="0 0 22 12" fill="none" xmlns="http://www.w3.org/2000/svg">
<path fill-rule="evenodd" clip-rule="evenodd" d="M20.6103 8.40394L20.6772 8.39299C21.0398 8.39299 21.3333 8.69102 21.3333 9.05917V10.1877C21.3333 10.374 21.1844 10.5252 21.0009 10.5252H19.1599C19.0045 11.3689 18.2749 12 17.4137 12C16.5525 12 15.8252 11.3601 15.6698 10.5252H5.10886C4.9513 11.3623 4.22609 12 3.35627 12C2.48644 12 1.76123 11.3645 1.60367 10.5252H0.656145C0.293538 10.5252 0 10.2272 0 9.85902V1.42659C0 0.681519 0.561176 0.0745069 1.27344 0H12.8876C13.6021 0.0745069 14.1632 0.681519 14.1632 1.42659V3.24543H18.0656C18.1541 3.24543 18.2382 3.2805 18.3008 3.34405C18.6402 3.68772 18.9208 3.97249 19.1891 4.24465L19.1917 4.24734L19.1937 4.24939C19.6062 4.66785 19.9898 5.05714 20.5132 5.58583C20.5757 5.64938 20.6103 5.73484 20.6103 5.82469V8.40394ZM2.23607 10.1855C2.23607 10.8123 2.73897 11.3229 3.35627 11.3229C3.97356 11.3229 4.47646 10.8123 4.47646 10.1855C4.47646 9.5588 3.97356 9.04821 3.35627 9.04821C2.73897 9.04821 2.23607 9.5588 2.23607 10.1855ZM11.8991 7.82104H13.4963V1.42659C13.4963 1.00584 13.1596 0.663988 12.7473 0.663988H1.41589C1.00364 0.663988 0.666937 1.00584 0.666937 1.42659V4.92184H2.63969C2.82315 4.92184 2.97208 5.07305 2.97208 5.25931C2.97208 5.44558 2.82315 5.59679 2.63969 5.59679H0.666937V6.44266H1.91663C2.10009 6.44266 2.24902 6.59386 2.24902 6.78013C2.24902 6.9664 2.10009 7.1176 1.91663 7.1176H0.666937V9.85683L1.60151 9.84806C1.7526 9.01972 2.50155 8.36888 3.35627 8.36888C4.21098 8.36888 4.95778 9.01753 5.11102 9.84368H13.4963V8.49598H11.8991C11.7156 8.49598 11.5667 8.34478 11.5667 8.15851C11.5667 7.97224 11.7156 7.82104 11.8991 7.82104ZM16.3 10.2294C16.3173 10.832 16.818 11.3229 17.4137 11.3229V11.3251C18.8965 11.3251 18.9095 9.0504 17.4137 9.0504C16.8223 9.0504 16.2827 9.54127 16.3 10.2294ZM19.1685 9.84806H20.6686V9.84587V9.06793H20.6016C20.239 9.06793 19.9455 8.76991 19.9455 8.40175V7.18747C19.8825 7.27507 19.7708 7.33335 19.6437 7.33335H15.6893C15.4927 7.33335 15.3331 7.19406 15.3331 7.02247V4.97755C15.3331 4.80597 15.4927 4.66668 15.6893 4.66668H17.9555C18.0504 4.66668 18.1405 4.69898 18.2076 4.75752L19.8958 6.23115C19.9148 6.24779 19.9315 6.26607 19.9455 6.28561V5.96275C19.1729 5.18048 18.7002 4.70058 17.9297 3.91835L17.9296 3.91819H14.1632V9.84806H15.659C15.8101 9.02849 16.5504 8.37327 17.4137 8.37327C18.2771 8.37327 19.0174 9.03068 19.1685 9.84806ZM16.0454 6.71159H19.2852V6.58038L17.8075 5.29045H16.0454V6.71159ZM17.7758 10H17.5574C17.4337 10 17.3333 10.1494 17.3333 10.3334C17.3333 10.5173 17.4337 10.6667 17.5574 10.6667H17.7758C17.8995 10.6667 18 10.5173 18 10.3334C18 10.1494 17.8995 10 17.7758 10ZM3.11476 10H3.55144C3.79889 10 3.99977 10.1494 3.99977 10.3334C3.99977 10.5173 3.79889 10.6667 3.55144 10.6667H3.11476C2.86731 10.6667 2.66643 10.5173 2.66643 10.3334C2.66643 10.1494 2.86731 10 3.11476 10Z" fill="#828282"/>
</svg>
