<svg width="23" height="32" viewBox="0 0 23 32" fill="none" xmlns="http://www.w3.org/2000/svg">
<path fill-rule="evenodd" clip-rule="evenodd" d="M19.7506 21.6314V4.40076C19.7506 4.12454 19.5272 3.9042 19.2541 3.9042H16.0078V3.88247C16.0078 3.03522 15.3188 2.34314 14.4685 2.34314H12.6933L12.6716 2.31831C12.4202 0.974497 11.2471 0 9.87842 0C8.50978 0 7.33666 0.974497 7.06355 2.34314H5.28836C4.438 2.34314 3.74902 3.03522 3.74902 3.88247V3.9042H0.496559C0.220348 3.9042 0 4.12765 0 4.40076V28.4404C0 28.7166 0.223452 28.937 0.496559 28.937H12.9726C13.854 30.6532 15.6354 31.8294 17.693 31.8294C20.6196 31.8294 23 29.4491 23 26.5225C23 24.3252 21.6593 22.4352 19.7506 21.6314ZM18.7544 4.89731V21.3272C18.5682 21.29 18.3789 21.262 18.1865 21.2465V5.96492C18.1865 5.68871 17.963 5.46836 17.6899 5.46836H16.0047V4.89731H18.7513H18.7544ZM13.435 23.3724H6.98597C6.70976 23.3724 6.48941 23.5959 6.48941 23.869C6.48941 24.1421 6.71286 24.3655 6.98597 24.3655H12.8516C12.5754 24.9831 12.414 25.6628 12.3954 26.3797H2.56038V6.46458H17.1934V21.2465C15.654 21.3924 14.3102 22.1962 13.435 23.3755V23.3724ZM4.74524 3.87937C4.74524 3.57833 4.99042 3.33626 5.28836 3.33626H7.06355C7.5508 3.33626 7.97288 2.98246 8.06288 2.49831C8.22426 1.62623 8.98772 0.993118 9.87842 0.993118C10.7691 0.993118 11.5295 1.62623 11.694 2.49831C11.784 2.98556 12.2029 3.33626 12.6933 3.33626H14.4685C14.7695 3.33626 15.0116 3.58143 15.0116 3.87937V5.46525H4.74524V3.87937ZM0.996222 27.9439V4.89731H3.75213V5.46836H2.06382C1.78761 5.46836 1.56726 5.69181 1.56726 5.96492V26.8794C1.56726 27.1556 1.79072 27.3759 2.06382 27.3759H12.4636C12.4947 27.5683 12.535 27.7577 12.5878 27.9439H0.996222ZM17.6915 30.8363C15.3149 30.8355 13.3823 28.9023 13.3823 26.5256C13.3823 24.1483 15.3126 22.2179 17.6868 22.2148H17.693C20.0703 22.2148 22.0007 24.1483 22.0007 26.5256C22.0007 28.9023 20.068 30.8355 17.6915 30.8363ZM19.9989 24.4523C18.7792 24.7161 17.6465 25.675 16.5478 27.3882L15.5826 26.6651C15.3623 26.5006 15.0519 26.544 14.8875 26.7644C14.723 26.9847 14.7664 27.2951 14.9868 27.4596L16.3865 28.5116C16.6254 28.6885 16.9637 28.6203 17.1127 28.3689C18.1523 26.6154 19.1641 25.6533 20.2069 25.4299C20.4769 25.3709 20.6476 25.1071 20.5886 24.8402C20.5296 24.5702 20.2689 24.3995 19.9989 24.4585V24.4523ZM15.6602 9.4717H6.98597C6.71286 9.4717 6.48941 9.24825 6.48941 8.97514C6.48941 8.70204 6.70976 8.47858 6.98597 8.47858H15.6602C15.9333 8.47858 16.1568 8.70204 16.1568 8.97514C16.1568 9.24825 15.9364 9.4717 15.6602 9.4717ZM5.0587 8.47858H4.09351C3.8173 8.47858 3.59695 8.70204 3.59695 8.97514C3.59695 9.24825 3.8204 9.4717 4.09351 9.4717H5.0587C5.33491 9.4717 5.55526 9.24825 5.55526 8.97514C5.55526 8.70204 5.3318 8.47858 5.0587 8.47858ZM6.98597 12.2028H15.6602C15.9333 12.2028 16.1568 12.4262 16.1568 12.6993C16.1568 12.9724 15.9364 13.1959 15.6602 13.1959H6.98597C6.71286 13.1959 6.48941 12.9724 6.48941 12.6993C6.48941 12.4262 6.70976 12.2028 6.98597 12.2028ZM5.0587 12.2028H4.09351C3.8173 12.2028 3.59695 12.4262 3.59695 12.6993C3.59695 12.9724 3.8204 13.1959 4.09351 13.1959H5.0587C5.33491 13.1959 5.55526 12.9724 5.55526 12.6993C5.55526 12.4262 5.3318 12.2028 5.0587 12.2028ZM6.98597 15.9239H15.6602C15.9333 15.9239 16.1568 16.1473 16.1568 16.4204C16.1568 16.6935 15.9364 16.917 15.6602 16.917H6.98597C6.71286 16.917 6.48941 16.6935 6.48941 16.4204C6.48941 16.1473 6.70976 15.9239 6.98597 15.9239ZM5.0587 15.9239H4.09351C3.8173 15.9239 3.59695 16.1473 3.59695 16.4204C3.59695 16.6935 3.8204 16.917 4.09351 16.917H5.0587C5.33491 16.917 5.55526 16.6935 5.55526 16.4204C5.55526 16.1473 5.3318 15.9239 5.0587 15.9239ZM6.98597 19.6481H15.6602C15.9333 19.6481 16.1568 19.8715 16.1568 20.1446C16.1568 20.4177 15.9364 20.6412 15.6602 20.6412H6.98597C6.71286 20.6412 6.48941 20.4177 6.48941 20.1446C6.48941 19.8715 6.70976 19.6481 6.98597 19.6481ZM5.0587 19.6481H4.09351C3.8173 19.6481 3.59695 19.8715 3.59695 20.1446C3.59695 20.4177 3.8204 20.6412 4.09351 20.6412H5.0587C5.33491 20.6412 5.55526 20.4177 5.55526 20.1446C5.55526 19.8715 5.3318 19.6481 5.0587 19.6481ZM4.09351 23.3723H5.0587C5.3318 23.3723 5.55526 23.5957 5.55526 23.8688C5.55526 24.1419 5.33491 24.3654 5.0587 24.3654H4.09351C3.8204 24.3654 3.59695 24.1419 3.59695 23.8688C3.59695 23.5957 3.8173 23.3723 4.09351 23.3723Z" fill="#4F4F4F"/>
</svg>
