<svg width="89" height="38" viewBox="0 0 89 38" fill="none" xmlns="http://www.w3.org/2000/svg">
<path d="M0.224 17L8.428 0.536H15.708L23.884 17H17.864L16.492 14.004H7.644L6.104 17H0.224ZM9.184 10.14H14.924L12.208 4.176H11.928L9.184 10.14ZM31.6212 17.28C29.7545 17.28 28.3359 16.8413 27.3652 15.964C26.4132 15.0867 25.9372 13.668 25.9372 11.708V0.536H31.3972V11.204C31.3972 12.0813 31.6119 12.6693 32.0412 12.968C32.4705 13.2667 33.0025 13.416 33.6372 13.416H37.2492C37.8465 13.416 38.3692 13.2667 38.8172 12.968C39.2652 12.6507 39.4892 12.0627 39.4892 11.204V0.536H44.8652V11.708C44.8652 13.668 44.3892 15.0867 43.4372 15.964C42.5039 16.8413 41.0945 17.28 39.2092 17.28H31.6212ZM53.8998 17V4.316H47.2358V0.507999H66.0798V4.316H59.3318V17H53.8998ZM74.2807 17C72.3021 17 70.8554 16.5613 69.9407 15.684C69.0447 14.788 68.5967 13.3693 68.5967 11.428V6.08C68.5967 4.176 69.0447 2.776 69.9407 1.88C70.8367 0.984 72.2834 0.536 74.2807 0.536H82.4567C84.4167 0.536 85.8447 0.984 86.7407 1.88C87.6554 2.776 88.1127 4.176 88.1127 6.08V11.428C88.1127 13.3693 87.6554 14.788 86.7407 15.684C85.8261 16.5613 84.3981 17 82.4567 17H74.2807ZM76.2127 13.192H80.5527C82.0087 13.192 82.7367 12.5293 82.7367 11.204V6.304C82.7367 4.99733 82.0087 4.344 80.5527 4.344H76.2127C75.4661 4.344 74.9061 4.49333 74.5327 4.792C74.1594 5.09067 73.9727 5.59467 73.9727 6.304V11.204C73.9727 11.8947 74.1594 12.3987 74.5327 12.716C74.9061 13.0333 75.4661 13.192 76.2127 13.192Z" fill="#383648"/>
<path d="M2.24 38L2.52 35.76V21.536H7.896V34.164H17.808L19.488 37.692C19.488 37.7667 19.236 37.8413 18.732 37.916C18.228 37.972 17.36 38 16.128 38H2.24ZM27.1401 38C25.1614 38 23.7148 37.5613 22.8001 36.684C21.9041 35.788 21.4561 34.3693 21.4561 32.428V27.08C21.4561 25.176 21.9041 23.776 22.8001 22.88C23.6961 21.984 25.1428 21.536 27.1401 21.536H35.3161C37.2761 21.536 38.7041 21.984 39.6001 22.88C40.5148 23.776 40.9721 25.176 40.9721 27.08V32.428C40.9721 34.3693 40.5148 35.788 39.6001 36.684C38.6854 37.5613 37.2574 38 35.3161 38H27.1401ZM29.0721 34.192H33.4121C34.8681 34.192 35.5961 33.5293 35.5961 32.204V27.304C35.5961 25.9973 34.8681 25.344 33.4121 25.344H29.0721C28.3254 25.344 27.7654 25.4933 27.3921 25.792C27.0188 26.0907 26.8321 26.5947 26.8321 27.304V32.204C26.8321 32.8947 27.0188 33.3987 27.3921 33.716C27.7654 34.0333 28.3254 34.192 29.0721 34.192ZM50.5737 38C48.5764 38 47.1297 37.5613 46.2337 36.684C45.3377 35.8067 44.8897 34.388 44.8897 32.428V27.304C44.8897 25.288 45.3844 23.8227 46.3737 22.908C47.363 21.9747 48.763 21.508 50.5737 21.508H59.9257C61.2137 21.508 62.1937 21.5827 62.8657 21.732C63.5564 21.8627 63.9017 22.0027 63.9017 22.152L63.0337 25.652C62.567 25.596 61.6524 25.54 60.2897 25.484C58.9457 25.4093 57.247 25.372 55.1937 25.372H52.5897C51.7124 25.372 51.115 25.54 50.7977 25.876C50.499 26.1933 50.3497 26.688 50.3497 27.36V32.148C50.3497 32.7827 50.4804 33.2773 50.7417 33.632C51.0217 33.968 51.6377 34.136 52.5897 34.136H54.8577C55.7164 34.136 56.491 34.136 57.1817 34.136C57.8724 34.1173 58.479 34.0987 59.0017 34.08V31.952L57.8817 31.98L54.2137 32.26V28.396H64.3497V36.824L64.6297 37.412C64.6297 37.5613 64.2377 37.7013 63.4537 37.832C62.6697 37.944 61.3444 38 59.4777 38H50.5737Z" fill="#6C5DD3"/>
</svg>
