<svg width="10" height="16" viewBox="0 0 10 16" fill="none" xmlns="http://www.w3.org/2000/svg">
<path fill-rule="evenodd" clip-rule="evenodd" d="M5.32213 15.4125C5.25108 15.6392 5.04129 15.7949 4.80443 15.7949V15.7983C4.56758 15.7983 4.35779 15.6426 4.28674 15.4159C4.2732 15.3651 2.71334 10.3675 0.666232 6.994C-0.196598 5.56949 -0.223667 3.85059 0.598559 2.39224C1.44109 0.893283 3.01448 0 4.80443 0C6.59438 0 8.16778 0.893283 9.00693 2.38886C9.82915 3.84721 9.80547 5.56949 8.94264 6.99062C6.95299 10.2727 5.42681 15.0827 5.32717 15.3967C5.3243 15.4058 5.32261 15.4111 5.32213 15.4125ZM4.80443 1.08615C3.41037 1.08615 2.19226 1.77303 1.5426 2.92347L1.54936 2.92686C0.920006 4.03669 0.940308 5.34955 1.59674 6.43232C3.0111 8.76703 4.17508 11.7616 4.80782 13.5515C5.44056 11.7616 6.60115 8.76703 8.0189 6.43232C8.67533 5.34955 8.69225 4.03669 8.06627 2.92347C7.41661 1.77303 6.1985 1.08615 4.80443 1.08615ZM4.80442 2.16218C6.27969 2.16218 7.4775 3.36338 7.4775 4.83526C7.4775 6.31053 6.27969 7.50835 4.80442 7.50835C3.32915 7.50835 2.13133 6.31053 2.13133 4.83526C2.13133 3.35999 3.32915 2.16218 4.80442 2.16218ZM4.80442 3.24833C3.93143 3.24833 3.21748 3.9589 3.21748 4.83526C3.21748 5.70824 3.93143 6.42219 4.80442 6.42219C5.6774 6.42219 6.39135 5.70824 6.39135 4.83526C6.39135 3.96228 5.6774 3.24833 4.80442 3.24833Z" fill="#828282"/>
</svg>
