<svg width="16" height="16" viewBox="0 0 16 16" fill="none" xmlns="http://www.w3.org/2000/svg">
<path d="M10.9029 7.87476L13.8191 14.4441C13.8648 14.5485 13.9606 14.6247 14.0738 14.6464C14.1913 14.6682 14.3044 14.629 14.385 14.5507L15.3229 13.6128C15.41 13.5258 15.4448 13.4018 15.4143 13.2843L15.0661 11.8568C15.0204 11.6653 14.9769 11.4891 14.9377 11.3259L15.4296 10.8341C15.8735 10.3902 15.9149 10.1204 15.9519 9.67865C15.9845 9.28697 16.0651 9.13248 15.8997 8.96711C15.7364 8.80391 15.5906 8.88224 15.1837 8.91706C14.8899 8.94317 14.6614 8.97363 14.4046 9.13466C14.361 8.95405 14.311 8.74733 14.2544 8.5145L14.5547 8.21422C14.9987 7.77032 15.04 7.50049 15.077 7.05877C15.1097 6.66709 15.1902 6.5126 15.0248 6.34722C14.8572 6.17967 14.7353 6.26889 14.3023 6.28629C14.0912 6.295 13.9192 6.31241 13.7364 6.39292L13.4579 5.25488C14.0912 4.53245 14.6113 3.8666 14.99 3.28997C15.854 1.96479 16.0128 1.05741 15.4753 0.522117C14.9377 -0.0153509 14.0324 0.143496 12.7071 1.00736C12.1282 1.38381 11.4644 1.90387 10.7397 2.53925L9.60151 2.26073C9.68203 2.07794 9.69944 1.90387 9.70815 1.69497C9.7125 1.57747 9.71903 1.44473 9.74514 1.27283C9.76255 1.16186 9.72556 1.05088 9.64721 0.972545C9.56886 0.89421 9.45787 0.857218 9.34688 0.874626C9.18366 0.900738 9.05091 0.911618 8.93774 0.920322C8.49596 0.957313 8.2261 1.00083 7.78214 1.44256L7.47746 1.7472C7.35124 1.71238 7.19454 1.67539 6.99868 1.62752L6.86157 1.59488C7.02262 1.33811 7.05526 1.11181 7.0792 0.815874C7.09008 0.700547 7.10096 0.565636 7.12708 0.402438C7.14449 0.291463 7.10967 0.180488 7.02915 0.102152C6.94862 0.0238168 6.83981 -0.0131749 6.72882 0.00423297C6.5656 0.0303448 6.43285 0.0412247 6.31968 0.0499286C5.8779 0.0869203 5.60586 0.13044 5.16408 0.572164L4.67224 1.06394L2.70923 0.578692C2.59172 0.548229 2.46549 0.58522 2.38062 0.670084L1.44264 1.61011C1.27071 1.78201 1.32295 2.07577 1.5471 2.17586L8.11511 5.09168C6.95951 6.32546 5.44264 8.05972 4.29357 9.62643L1.3817 9.30438C1.27724 9.2935 1.17278 9.33049 1.09661 9.40448L0.102053 10.3989C-0.0938121 10.5947 0.00629669 10.9342 0.282684 10.9886L3.06179 11.5282C2.63524 12.3312 2.47202 12.9557 2.75494 13.2386C2.85287 13.3365 2.98997 13.38 3.15972 13.38C3.48834 13.38 3.93883 13.2124 4.46767 12.9317L5.00521 15.7105C5.05744 15.9846 5.39694 16.0891 5.59498 15.8911L6.59172 14.8945C6.66571 14.8205 6.70271 14.7161 6.69182 14.6094L6.37409 11.6958C7.94101 10.5469 9.67333 9.03021 10.9051 7.87476H10.9029ZM15.2577 9.60902C15.2032 10.2531 14.9399 10.2814 14.7441 10.5316C14.6984 10.3467 14.6287 10.0594 14.5852 9.87449C14.8072 9.66342 14.9203 9.63078 15.2577 9.60902ZM14.385 6.98043C14.3458 7.32859 14.3719 7.4091 14.0629 7.71809L13.9084 7.09141C14.0542 6.98696 14.1499 6.98914 14.385 6.98043ZM14.6896 13.2581L14.25 13.6977L11.4383 7.36558C11.9367 6.88251 12.4307 6.37769 12.892 5.87939C15.0727 14.8336 11.1488 -1.29048 14.6875 13.256L14.6896 13.2581ZM8.27398 1.92998C8.53513 1.66886 8.63742 1.62969 9.01174 1.60793C9.00303 1.83423 9.00521 1.93868 8.90075 2.08447L8.2718 1.92998H8.27398ZM6.38497 0.735363C6.36103 1.07917 6.33274 1.18362 6.12164 1.40774L5.4644 1.2489C5.86484 0.859394 5.85396 0.781059 6.38497 0.735363V0.735363ZM2.29574 1.74284L2.73535 1.30329C10.2849 3.13765 10.1478 3.10718 10.1129 3.09848C9.61892 3.55544 9.10967 4.05374 8.62654 4.55204L2.29574 1.74284ZM1.05962 10.4272L1.47311 10.0138L3.83437 10.2749C3.69074 10.4859 3.55581 10.6905 3.43394 10.8863L1.06179 10.4272H1.05962ZM13.6799 1.23584C14.0912 1.02042 14.435 0.909442 14.6788 0.909442C14.8115 0.909442 14.916 0.942081 14.9834 1.00954C15.175 1.20102 15.0923 1.67539 14.7571 2.31295C12.8463 5.95119 4.66789 12.5444 3.28377 12.7098C3.44917 11.3259 10.0324 3.1507 13.6799 1.23802V1.23584ZM5.978 14.518L5.56451 14.9315L5.10532 12.5597C5.30336 12.4356 5.50793 12.3007 5.71903 12.1571L5.978 14.518V14.518Z" fill="#828282"/>
</svg>
