<svg width="21" height="21" viewBox="0 0 21 21" fill="none" xmlns="http://www.w3.org/2000/svg">
<path fill-rule="evenodd" clip-rule="evenodd" d="M6.70367 13.0976C4.78288 13.0976 2.71526 12.6591 2.71526 11.6937C2.71526 10.8671 4.20764 10.4588 5.66986 10.3361C4.64007 8.48568 2.92443 5.19117 2.92443 3.77924C2.92443 1.69553 4.62197 0 6.70568 0C8.78939 0 10.4849 1.69553 10.4829 3.77924C10.4829 5.19117 8.76726 8.48568 7.73748 10.3361C9.19969 10.4588 10.6921 10.8671 10.6921 11.6937C10.6921 12.6591 8.62446 13.0976 6.70367 13.0976ZM6.70367 0.655684C4.98199 0.655684 3.58012 2.05756 3.58012 3.77924C3.58012 5.13686 5.62561 8.96236 6.70367 10.8309C7.78173 8.96236 9.82722 5.13888 9.82722 3.77924C9.82722 2.05756 8.42534 0.655684 6.70367 0.655684ZM6.4241 11.6474C6.39594 11.6012 6.2471 11.3518 6.02787 10.9676C4.22574 11.0682 3.39709 11.5207 3.37295 11.6937C3.40312 11.915 4.57571 12.4399 6.70568 12.4399C8.83565 12.4399 10.0082 11.915 10.0384 11.6917C10.0143 11.5207 9.18561 11.0662 7.38349 10.9676C7.16224 11.3518 7.01542 11.6012 6.98726 11.6474C6.92893 11.748 6.82032 11.8084 6.70568 11.8084C6.59104 11.8084 6.48243 11.746 6.4241 11.6474ZM8.5601 5.40638V3.64247L8.60435 3.66459C8.76726 3.74705 8.96437 3.68068 9.04482 3.52179C9.12729 3.36088 9.06292 3.16177 8.90202 3.08131L6.8525 2.03745C6.75998 1.98918 6.64735 1.98918 6.55483 2.03745L5.79858 2.42362V2.22249C5.79858 2.04147 5.65176 1.89465 5.47074 1.89465C5.28972 1.89465 5.1429 2.04147 5.1429 2.22249V2.75749L4.50733 3.08131C4.34642 3.16378 4.28206 3.36088 4.36452 3.52179C4.44699 3.68269 4.64409 3.74705 4.805 3.66459L4.84925 3.64247V5.40638C4.84925 5.5874 4.99607 5.73422 5.17709 5.73422H8.23226C8.41327 5.73422 8.5601 5.5874 8.5601 5.40638ZM7.9024 5.07854H5.50493V3.30859L6.70367 2.69716L7.9024 3.30859V5.07854ZM2.45781 20.3383H3.76918C3.9502 20.3383 4.09702 20.4851 4.09702 20.6661C4.09702 20.8471 3.9502 20.994 3.76918 20.994H2.45781C2.27679 20.994 2.12997 20.8471 2.12997 20.6661C2.12997 20.4851 2.27679 20.3383 2.45781 20.3383ZM5.41241 20.3383H6.72378C6.9048 20.3383 7.05162 20.4851 7.05162 20.6661C7.05162 20.8471 6.9048 20.994 6.72378 20.994H5.41241C5.2314 20.994 5.08457 20.8471 5.08457 20.6661C5.08457 20.4851 5.2314 20.3383 5.41241 20.3383ZM9.67637 20.3383H8.365C8.18399 20.3383 8.03716 20.4851 8.03716 20.6661C8.03716 20.8471 8.18399 20.994 8.365 20.994H9.67637C9.85739 20.994 10.0042 20.8471 10.0042 20.6661C10.0042 20.4851 9.85739 20.3383 9.67637 20.3383ZM11.3196 20.3383H12.631C12.812 20.3383 12.9588 20.4851 12.9588 20.6661C12.9588 20.8471 12.812 20.994 12.631 20.994H11.3196C11.1386 20.994 10.9918 20.8471 10.9918 20.6661C10.9918 20.4851 11.1386 20.3383 11.3196 20.3383ZM15.5836 20.3383H14.2722C14.0912 20.3383 13.9444 20.4851 13.9444 20.6661C13.9444 20.8471 14.0912 20.994 14.2722 20.994H15.5836C15.7646 20.994 15.9114 20.8471 15.9114 20.6661C15.9114 20.4851 15.7646 20.3383 15.5836 20.3383ZM17.2248 20.3383H18.5362C18.7172 20.3383 18.864 20.4851 18.864 20.6661C18.864 20.8471 18.7172 20.994 18.5362 20.994H17.2248C17.0438 20.994 16.8969 20.8471 16.8969 20.6661C16.8969 20.4851 17.0438 20.3383 17.2248 20.3383ZM18.7212 8.4354C18.7333 8.44948 18.7433 8.46557 18.7534 8.48166L18.7574 8.47965C19.7098 10.1543 20.258 11.0909 20.5734 11.6298L20.5734 11.6298C20.9827 12.3291 21 12.3587 21 12.462V16.5892C21 16.9513 20.7064 17.2449 20.3443 17.2449H19.397C19.2421 18.0836 18.506 18.7212 17.623 18.7212C16.7401 18.7212 16.0039 18.0836 15.8491 17.2449H9.38272C9.22785 18.0836 8.49172 18.7212 7.60875 18.7212C6.72579 18.7212 5.98966 18.0836 5.83479 17.2449H5.11675C4.96188 18.0836 4.22574 18.7212 3.34278 18.7212C2.45982 18.7212 1.72369 18.0836 1.56882 17.2449H0.655684C0.29365 17.2449 0 16.9513 0 16.5892V14.4311C0 14.0691 0.29365 13.7754 0.655684 13.7754H14.242V8.85576C14.242 8.49373 14.5357 8.20008 14.8977 8.20008H18.2184C18.4115 8.20008 18.5965 8.28656 18.7212 8.4354ZM2.19433 16.9211C2.19634 17.5546 2.71123 18.0675 3.34278 18.0675C3.97634 18.0675 4.49124 17.5526 4.49124 16.9191C4.49124 16.2855 3.97433 15.7706 3.34278 15.7706C2.71123 15.7706 2.19634 16.2835 2.19433 16.915V16.9191V16.9211ZM6.45829 16.9211C6.4603 17.5546 6.97519 18.0675 7.60674 18.0675C8.2403 18.0675 8.7552 17.5526 8.7552 16.9191C8.7552 16.2855 8.23829 15.7706 7.60674 15.7706C6.97519 15.7706 6.4603 16.2835 6.45829 16.915V16.9191V16.9211ZM9.3787 16.5912H14.24V14.4331H0.655684V16.5912H1.57083C1.7257 15.7545 2.46183 15.1169 3.34278 15.1169C4.22373 15.1169 4.95987 15.7525 5.11474 16.5912H5.83479C5.98966 15.7545 6.72579 15.1169 7.60674 15.1169C8.48769 15.1169 9.22383 15.7525 9.3787 16.5912ZM18.2103 8.85576H14.8957V12.1362H20.0989L18.2103 8.85576ZM16.4685 16.9231C16.4705 17.5546 16.9854 18.0675 17.617 18.0675V18.0695C18.2505 18.0695 18.7654 17.5546 18.7654 16.9211C18.7654 16.2875 18.2485 15.7726 17.617 15.7726C16.9854 15.7726 16.4705 16.2835 16.4685 16.915V16.9191V16.9231ZM20.0104 14.9741H20.3383L20.3403 14.9721V12.7899H14.8977V16.5892H15.847C16.0019 15.7525 16.7381 15.1149 17.619 15.1149C18.5 15.1149 19.2361 15.7505 19.391 16.5892H20.3383V15.6298H20.0104C19.8294 15.6298 19.6826 15.483 19.6826 15.302C19.6826 15.121 19.8294 14.9741 20.0104 14.9741ZM17.7819 16.5912H17.4541C17.2731 16.5912 17.1262 16.7381 17.1262 16.9191C17.1262 17.1001 17.2731 17.2469 17.4541 17.2469H17.7819C17.9629 17.2469 18.1098 17.1001 18.1098 16.9191C18.1098 16.7381 17.9629 16.5912 17.7819 16.5912ZM7.44182 16.5912H7.76966C7.95068 16.5912 8.0975 16.7381 8.0975 16.9191C8.0975 17.1001 7.95068 17.2469 7.76966 17.2469H7.44182C7.2608 17.2469 7.11397 17.1001 7.11397 16.9191C7.11397 16.7381 7.2608 16.5912 7.44182 16.5912ZM3.5057 16.5912H3.17786C2.99684 16.5912 2.85001 16.7381 2.85001 16.9191C2.85001 17.1001 2.99684 17.2469 3.17786 17.2469H3.5057C3.68672 17.2469 3.83354 17.1001 3.83354 16.9191C3.83354 16.7381 3.68672 16.5912 3.5057 16.5912Z" fill="#6C5DD3"/>
</svg>
