<svg width="21" height="21" viewBox="0 0 21 21" fill="none" xmlns="http://www.w3.org/2000/svg">
<path fill-rule="evenodd" clip-rule="evenodd" d="M5.66377 1.61035C5.14495 0.616603 4.12526 0 3.0018 0C1.87835 0 0.858657 0.618599 0.335841 1.61634C-0.194957 2.63204 -0.0931874 3.79939 0.617203 4.82108C1.35553 5.88467 2.52488 8.19943 2.67654 9.40669C2.69649 9.57032 2.83618 9.69404 3.0018 9.69404C3.16743 9.69404 3.30711 9.57032 3.32707 9.40669C3.47872 8.19943 4.64807 5.88467 5.3864 4.82108C6.08482 3.81536 6.18858 2.61607 5.66178 1.61035H5.66377ZM3.0018 8.08569C2.50669 6.69484 1.93028 5.73492 1.47064 4.96946C0.755796 3.77899 0.323395 3.05889 0.918521 1.91965C1.3256 1.13942 2.12579 0.656513 3.0038 0.656513C3.88181 0.656513 4.678 1.13942 5.08309 1.91566C5.68243 3.06086 5.24857 3.78315 4.53234 4.97551C4.07295 5.7403 3.49739 6.69848 3.0038 8.08569H3.0018ZM3.00186 1.57213C2.20766 1.57213 1.56113 2.21866 1.56113 3.01286C1.56113 3.80706 2.20766 4.4536 3.00186 4.4536C3.79607 4.4536 4.4426 3.80706 4.4426 3.01286C4.4426 2.21866 3.79607 1.57213 3.00186 1.57213ZM3.00186 3.79709C2.56885 3.79709 2.21764 3.44588 2.21764 3.01286C2.21764 2.57984 2.56885 2.22864 3.00186 2.22864C3.43488 2.22864 3.78609 2.57984 3.78609 3.01286C3.78609 3.44588 3.43488 3.79709 3.00186 3.79709ZM10.1995 17.8612H10.856C11.0356 17.8612 11.1833 18.0089 11.1833 18.1885C11.1833 18.368 11.0376 18.5157 10.856 18.5157H10.1995C10.0199 18.5157 9.87227 18.368 9.87227 18.1885C9.87227 18.0089 10.0179 17.8612 10.1995 17.8612ZM6.45815 9.6281H7.75122C7.93281 9.6281 8.07848 9.48044 8.07848 9.30084C8.07848 9.12125 7.93081 8.97358 7.75122 8.97358H6.45815C6.27656 8.97358 6.13089 9.12125 6.13089 9.30084C6.13089 9.48044 6.27856 9.6281 6.45815 9.6281ZM12.9234 9.6281H11.6304C11.4508 9.6281 11.3031 9.48044 11.3031 9.30084C11.3031 9.12125 11.4488 8.97358 11.6304 8.97358H12.9234C13.103 8.97358 13.2507 9.12125 13.2507 9.30084C13.2507 9.48044 13.105 9.6281 12.9234 9.6281ZM9.04426 9.6281H10.3373C10.5189 9.6281 10.6646 9.48044 10.6646 9.30084C10.6646 9.12125 10.5169 8.97358 10.3373 8.97358H9.04426C8.86267 8.97358 8.717 9.12125 8.717 9.30084C8.717 9.48044 8.86467 9.6281 9.04426 9.6281ZM14.6317 10.5385C14.5559 10.2053 14.3384 9.9219 14.0351 9.76226V9.76027C13.8755 9.67646 13.8156 9.47691 13.8994 9.31727C13.9832 9.15763 14.1808 9.09577 14.3424 9.18158C14.8153 9.43101 15.1546 9.87401 15.2723 10.3928C15.3122 10.5704 15.2025 10.746 15.0249 10.7859C14.8552 10.8259 14.6737 10.7201 14.6317 10.5385ZM13.622 12.6273C14.1528 12.5874 14.6397 12.318 14.9589 11.889C15.0667 11.7433 15.0348 11.5378 14.8891 11.43C14.7434 11.3223 14.5379 11.3542 14.4301 11.4999C14.2266 11.7752 13.9133 11.9488 13.5741 11.9748C13.3925 11.9887 13.2568 12.1464 13.2708 12.326C13.2847 12.5076 13.4424 12.6433 13.622 12.6293V12.6273ZM12.3067 12.6311H11.0136C10.834 12.6311 10.6863 12.4834 10.6863 12.3038C10.6863 12.1242 10.832 11.9766 11.0136 11.9766H12.3067C12.4862 11.9766 12.6339 12.1242 12.6339 12.3038C12.6339 12.4834 12.4882 12.6311 12.3067 12.6311ZM6.32026 17.8618C6.28352 17.858 6.23644 17.8594 6.18108 17.8609C5.96885 17.8669 5.63486 17.8763 5.29459 17.6183C5.15091 17.5086 4.94538 17.5385 4.83563 17.6822C4.72588 17.8258 4.75381 18.0334 4.89948 18.1411C5.4199 18.5355 5.93361 18.5233 6.19184 18.5171C6.24848 18.5157 6.29283 18.5147 6.32226 18.5183C6.50385 18.5183 6.64952 18.3706 6.64952 18.191C6.64952 18.0114 6.50185 17.8638 6.32226 17.8638L6.32026 17.8618ZM7.61342 17.8612H8.90649C9.08608 17.8612 9.23375 18.0089 9.23375 18.1885C9.23375 18.368 9.08808 18.5157 8.90649 18.5157H7.61342C7.43383 18.5157 7.28616 18.368 7.28616 18.1885C7.28616 18.0089 7.43183 17.8612 7.61342 17.8612ZM7.46179 12.3038C7.46179 12.1222 7.31412 11.9766 7.13453 11.9766C6.77278 11.978 6.52129 11.9773 6.3394 11.9769C6.01862 11.9761 5.91433 11.9758 5.80354 11.9885C5.62395 12.0085 5.49424 12.1721 5.51619 12.3517C5.53615 12.5193 5.67783 12.641 5.84146 12.641C5.85399 12.641 5.8556 12.6409 5.85843 12.6405C5.87136 12.639 5.90983 12.6343 7.13453 12.6311C7.31612 12.6311 7.46179 12.4834 7.46179 12.3038ZM9.72054 11.9766C9.90014 11.9766 10.0478 12.1222 10.0478 12.3038C10.0478 12.4834 9.90213 12.6311 9.72054 12.6311H8.42747C8.24788 12.6311 8.10021 12.4834 8.10021 12.3038C8.10021 12.1242 8.24588 11.9766 8.42747 11.9766H9.72054ZM4.81987 15.4867C4.81987 15.3051 4.67221 15.1595 4.49261 15.1595C4.31302 15.1595 4.16536 15.3071 4.16536 15.4867C4.16536 15.8365 4.16503 16.0844 4.1648 16.2627V16.2627V16.2627V16.2628C4.16422 16.7109 4.1642 16.7195 4.17134 16.8037C4.18531 16.9753 4.32898 17.107 4.4986 17.107C4.69017 17.107 4.83983 16.9434 4.82586 16.7538C4.82227 16.7083 4.82227 16.7067 4.82241 16.4452C4.82251 16.2709 4.82267 15.9814 4.82187 15.4867H4.81987ZM4.16458 14.0269C4.15807 13.7479 4.14694 13.2706 4.49642 12.7688H4.49442C4.59818 12.6211 4.80372 12.5832 4.95138 12.687C5.10105 12.7908 5.13696 12.9963 5.0332 13.144C4.80446 13.4732 4.81274 13.7856 4.81883 14.0155C4.8206 14.0824 4.82219 14.1423 4.81769 14.1936C4.81769 14.3732 4.67002 14.5208 4.49043 14.5208C4.31084 14.5208 4.16317 14.3752 4.16317 14.1936C4.16749 14.1516 4.16617 14.0952 4.16458 14.0269ZM5.47626 9.29884C5.47626 9.11725 5.3286 8.97158 5.149 8.97158H4.49249C4.3109 8.97158 4.16523 9.11925 4.16523 9.29884C4.16523 9.47844 4.3129 9.6261 4.49249 9.6261H5.149C5.33059 9.6261 5.47626 9.47844 5.47626 9.29884ZM16.613 13.4476L20.8354 15.9041H20.8374C20.993 15.9959 21.0469 16.1954 20.9551 16.353C20.7686 16.6731 20.4321 16.4478 20.2131 16.3011C20.144 16.2549 20.0865 16.2164 20.0492 16.2054V20.6713C20.0492 20.8509 19.9035 20.9985 19.7219 20.9985H13.1768C12.9972 20.9985 12.8495 20.8529 12.8495 20.6713V16.2054L12.3925 16.4708C12.2349 16.5626 12.0353 16.5107 11.9435 16.353C11.8518 16.1954 11.9036 15.9959 12.0613 15.9041L16.2837 13.4476C16.3855 13.3878 16.5112 13.3878 16.613 13.4476ZM15.8008 18.2428V20.342H17.0939V18.2428H15.8008ZM17.7484 20.342H19.3907H19.3927V15.8222L16.4473 14.1101L13.502 15.8222V20.342H15.1443V17.9135C15.1443 17.7339 15.29 17.5863 15.4716 17.5863H17.4211C17.6007 17.5863 17.7484 17.7319 17.7484 17.9135V20.342Z" fill="#6C5DD3"/>
</svg>
