<svg width="23" height="23" viewBox="0 0 23 23" fill="none" xmlns="http://www.w3.org/2000/svg">
<path d="M10.8964 2.43939C11.1647 1.97475 11.8353 1.97475 12.1036 2.43939L19.6485 15.5076C19.9168 15.9722 19.5814 16.553 19.0449 16.553H3.95508C3.41855 16.553 3.08322 15.9722 3.35149 15.5076L10.8964 2.43939Z" stroke="#F45252" stroke-width="1.39394"/>
<path d="M12.1363 6.25361L11.9566 11.7586H10.6498L10.4647 6.25361H12.1363ZM10.4211 13.4629C10.4211 13.2306 10.501 13.0382 10.6607 12.8857C10.8241 12.7296 11.0382 12.6516 11.3032 12.6516C11.5719 12.6516 11.786 12.7296 11.9458 12.8857C12.1055 13.0382 12.1853 13.2306 12.1853 13.4629C12.1853 13.688 12.1055 13.8785 11.9458 14.0346C11.786 14.1907 11.5719 14.2688 11.3032 14.2688C11.0382 14.2688 10.8241 14.1907 10.6607 14.0346C10.501 13.8785 10.4211 13.688 10.4211 13.4629Z" fill="#F45252"/>
</svg>
