<svg width="21" height="22" viewBox="0 0 21 22" fill="none" xmlns="http://www.w3.org/2000/svg">
<path fill-rule="evenodd" clip-rule="evenodd" d="M20.9193 11.353C20.9724 11.2935 21 11.217 21 11.1363V9.86373C21 9.68316 20.8534 9.53657 20.6728 9.53657H18.695L11.7162 6.91502C11.7177 6.90099 11.7197 6.88746 11.7217 6.87409L11.7217 6.87404C11.7254 6.84899 11.729 6.82449 11.729 6.79818C11.729 6.2352 11.3487 5.75933 10.8303 5.617V4.3997C10.8805 4.36207 10.8922 4.35036 11.1092 4.13248L11.1093 4.13242C11.2599 3.98122 11.5094 3.73075 11.9393 3.30349C12.0434 3.19939 12.1029 3.05918 12.1029 2.91047C12.1029 2.76176 12.0455 2.62155 11.9393 2.51745L11.4656 2.0437V0.327162C11.4656 0.146586 11.319 0 11.1384 0C10.9578 0 10.8112 0.146586 10.8112 0.327162V1.40425C10.6264 1.28103 10.3821 1.28103 10.1951 1.40425V0.327162C10.1951 0.146586 10.0486 0 9.86798 0C9.68741 0 9.54082 0.146586 9.54082 0.327162V2.0437L9.06707 2.51745C8.96297 2.62155 8.90349 2.76176 8.90349 2.91047C8.90349 3.05918 8.96085 3.19939 9.06707 3.30349C9.50819 3.74294 9.76013 3.99616 9.90882 4.14561L9.90895 4.14574C10.091 4.32874 10.1182 4.35609 10.1486 4.37938C10.1538 4.38343 10.1592 4.38735 10.1655 4.39195L10.1656 4.39204L10.1657 4.39209L10.176 4.3997V5.89954C10.176 6.08012 10.3226 6.22671 10.5032 6.22671C10.8176 6.22671 11.0747 6.48376 11.0747 6.79605C11.0747 7.08498 10.8367 7.36753 10.5032 7.36753C10.1888 7.36753 9.93172 7.11047 9.93172 6.79605C9.93172 6.61548 9.78513 6.46889 9.60455 6.46889C9.42398 6.46889 9.27739 6.61548 9.27739 6.79605C9.27739 6.92352 9.30288 7.04249 9.339 7.15721L2.31138 9.53657H0.327162C0.146586 9.53657 0 9.68316 0 9.86373V11.1363C0 11.2149 0.0276176 11.2914 0.0807284 11.353L0.635205 11.9903V18.5505L0.0807284 19.1879C0.0276176 19.2473 0 19.3238 0 19.4046V20.6771C0 20.8577 0.146586 21.0042 0.327162 21.0042H20.6707C20.8513 21.0042 20.9979 20.8577 20.9979 20.6771V19.4046C20.9979 19.3259 20.9703 19.2495 20.9171 19.1879L20.3627 18.5505V11.9903L20.9171 11.353H20.9193ZM9.59818 2.91047L10.4989 2.00971L11.3997 2.91047L10.4989 3.81123L9.59818 2.91047ZM9.70652 7.72868C9.92109 7.91138 10.1951 8.0261 10.4989 8.0261C10.9005 8.0261 11.2552 7.82853 11.4783 7.52898L16.8255 9.53657H4.35933L9.70865 7.72656L9.70652 7.72868ZM20.3436 11.0152L19.7891 11.6525C19.736 11.712 19.7083 11.7885 19.7083 11.8692V18.6759C19.7083 18.7545 19.736 18.831 19.7891 18.8926L20.3436 19.5299V20.3499H0.656449V19.5299L1.21093 18.8926C1.26404 18.8331 1.29165 18.7566 1.29165 18.6759V11.8649C1.29165 11.7863 1.26404 11.7099 1.21093 11.6483L0.656449 11.0109V10.1909H20.3436V11.0109V11.0152ZM16.2222 11.1256C16.0416 11.1256 15.895 11.2722 15.895 11.4528V19.0816C15.895 19.2622 16.0416 19.4088 16.2222 19.4088C16.4027 19.4088 16.5493 19.2622 16.5493 19.0816V11.4549C16.5493 11.2744 16.4027 11.1278 16.2222 11.1278V11.1256ZM12.0795 11.4528C12.0795 11.2722 12.2261 11.1256 12.4067 11.1256V11.1278C12.5873 11.1278 12.7338 11.2744 12.7338 11.4549V19.0816C12.7338 19.2622 12.5873 19.4088 12.4067 19.4088C12.2261 19.4088 12.0795 19.2622 12.0795 19.0816V11.4528ZM8.59332 11.1256C8.41275 11.1256 8.26616 11.2722 8.26616 11.4528V19.0816C8.26616 19.2622 8.41275 19.4088 8.59332 19.4088C8.7739 19.4088 8.92049 19.2622 8.92049 19.0816V11.4549C8.92049 11.2744 8.7739 11.1278 8.59332 11.1278V11.1256ZM4.45068 11.4528C4.45068 11.2722 4.59727 11.1256 4.77785 11.1256V11.1278C4.95842 11.1278 5.10501 11.2744 5.10501 11.4549V19.0816C5.10501 19.2622 4.95842 19.4088 4.77785 19.4088C4.59727 19.4088 4.45068 19.2622 4.45068 19.0816V11.4528Z" fill="#6C5DD3"/>
</svg>
