<svg width="21" height="22" viewBox="0 0 21 22" fill="none" xmlns="http://www.w3.org/2000/svg">
<path fill-rule="evenodd" clip-rule="evenodd" d="M3.58512 3.40309C3.18608 3.54988 2.7457 3.5106 2.37767 3.28937C1.25913 3.77111 0 2.93996 0 1.71391C0 0.111559 2.03446 -0.622419 3.04549 0.64085C3.56444 0.61604 4.06065 0.886888 4.3253 1.33968C4.58995 1.33348 4.84839 1.41618 5.06135 1.57951C5.35287 1.80281 5.52034 2.14189 5.52034 2.50991C5.52034 3.51474 4.34184 4.05023 3.58512 3.40309ZM2.54453 1.08161C2.38756 0.891635 2.1923 0.655323 1.71399 0.655323C0.316334 0.655323 0.314267 2.77042 1.71399 2.77042C1.93346 2.77042 2.08033 2.70231 2.20026 2.6467C2.35035 2.5771 2.45822 2.52707 2.61337 2.65464C2.95667 2.93755 3.22134 2.8334 3.4414 2.7468C3.62823 2.67328 3.78292 2.61241 3.92626 2.81177C4.22606 3.22321 4.86286 3.00612 4.86286 2.50991C4.86286 2.18531 4.561 1.91859 4.21365 2.01163C4.04825 2.05505 3.87871 1.96408 3.82082 1.80488C3.69263 1.44512 3.32874 1.2363 2.95245 1.30867C2.76415 1.34741 2.66576 1.22833 2.54453 1.08161ZM20.3777 2.64858L19.3609 3.66542L20.6672 9.25025C20.694 9.35983 20.661 9.47561 20.5803 9.55624L19.9146 10.222C19.836 10.3006 19.7244 10.3295 19.6293 10.313C19.5238 10.2964 19.4349 10.2303 19.3874 10.1352L17.2392 5.78504C16.6445 6.36317 16.2004 6.8153 15.8382 7.18411C15.0695 7.96674 14.6693 8.37413 13.9807 8.814C13.981 8.82416 13.988 8.84911 13.9988 8.88695L13.9988 8.88697C14.0819 9.1801 14.3843 10.2464 13.4266 11.2041C13.2468 11.384 12.9387 11.2992 12.8767 11.0531L12.4859 9.50869C12.2833 9.57072 12.0807 9.62447 11.876 9.65962C11.7767 9.67823 11.6651 9.64721 11.5865 9.56865C11.51 9.49215 11.4769 9.38464 11.4955 9.27919C11.5307 9.07451 11.5844 8.87189 11.6465 8.66927L10.102 8.2785C9.98831 8.24956 9.89733 8.16065 9.86632 8.04694C9.83531 7.93322 9.86839 7.81124 9.95109 7.72853C10.9029 6.77668 11.9763 7.07594 12.2674 7.15708C12.3051 7.16758 12.3296 7.17443 12.3391 7.17443C12.7779 6.48754 13.1843 6.08864 13.9638 5.32364C14.334 4.96034 14.7883 4.51447 15.3701 3.91599L11.02 1.76781C10.9249 1.72232 10.8587 1.63135 10.8422 1.52797C10.8236 1.4246 10.8587 1.31708 10.9332 1.24265L11.5989 0.576903C11.6775 0.498336 11.7953 0.463188 11.9049 0.490066L17.4914 1.79675L18.5086 0.779522C19.1868 0.103435 20.1565 -0.0371575 20.6713 0.469391H20.6734C21.1903 0.998682 21.0538 1.97249 20.3777 2.64858ZM11.7209 1.38324L11.9339 1.17029L16.9456 2.34258L15.8601 3.42804L11.7209 1.38324ZM11.8739 8.05314L10.9683 7.82364C11.461 7.61879 11.824 7.72014 11.9594 7.75793C11.9825 7.76438 11.9989 7.76898 12.0083 7.76989C11.9607 7.86293 11.9153 7.95803 11.8739 8.05314ZM13.3357 10.191L13.1062 9.28333C13.2013 9.24198 13.2964 9.19649 13.3894 9.14894C13.3903 9.15682 13.3943 9.17138 13.4 9.19209L13.4 9.1921C13.4364 9.3234 13.541 9.70166 13.3357 10.191ZM16.5207 3.68015C13.172 6.99849 12.6761 7.48993 12.2612 8.89443C14.0525 8.36587 19.9001 2.19165 19.9291 2.15857C20.2785 1.7492 20.5038 1.32329 20.2599 0.984209C20.0986 0.762982 19.5528 0.661672 18.9738 1.24058C18.0193 2.19513 17.2096 2.99746 16.5207 3.68015ZM19.7761 9.43633L17.7313 5.2971L18.8188 4.20958L19.9911 9.2213L19.7781 9.43426L19.7761 9.43633ZM19.4342 17.9504C19.7639 18.2419 20.0582 18.5021 20.6691 18.5021H20.6712C20.8531 18.5021 20.9999 18.6489 20.9999 18.8308C20.9999 19.0128 20.8531 19.1596 20.6712 19.1596C19.8383 19.1596 19.4284 18.806 19.041 18.4718C18.6937 18.1722 18.3643 17.888 17.7642 17.888C17.1643 17.888 16.8355 18.172 16.4885 18.4715C16.1013 18.8058 15.6915 19.1596 14.8573 19.1596C14.0204 19.1596 13.6066 18.8036 13.217 18.4684C12.8701 18.17 12.5424 17.888 11.9524 17.888C11.3623 17.888 11.0341 18.17 10.6868 18.4684C10.2966 18.8036 9.88224 19.1596 9.04539 19.1596C8.20854 19.1596 7.79478 18.8036 7.4051 18.4684C7.05827 18.17 6.7305 17.888 6.14049 17.888C5.55047 17.888 5.22271 18.17 4.87588 18.4684C4.4862 18.8036 4.07244 19.1596 3.23559 19.1596C2.40101 19.1596 1.99126 18.8055 1.60417 18.4711C1.25767 18.1717 0.929337 17.888 0.330692 17.888C0.148749 17.888 0.00195313 17.7412 0.00195313 17.5593C0.00195313 17.3774 0.148749 17.2306 0.330692 17.2306C1.17327 17.2306 1.59246 17.5954 1.98007 17.9327C2.22306 18.1441 2.45363 18.3448 2.76833 18.438C2.50758 18.2143 2.44003 18.0957 1.80086 16.9735L1.80083 16.9734L1.80079 16.9734C1.44152 16.3426 0.901643 15.3947 0.0453715 13.9328C-0.0125197 13.8315 -0.0125197 13.7054 0.0453715 13.6041C0.103263 13.5028 0.210775 13.4408 0.328625 13.4408H2.63394V7.2588L2.09637 5.43936C2.06743 5.34011 2.08604 5.2326 2.14806 5.1499C2.21009 5.0672 2.30726 5.01758 2.41064 5.01758H6.54366C6.64704 5.01758 6.74421 5.0672 6.80624 5.1499C6.86826 5.2326 6.88687 5.34011 6.85793 5.43936L6.32037 7.2588V13.4408H12.5209L13.5857 12.132C13.6477 12.0555 13.7408 12.01 13.84 12.01H20.667C20.7787 12.01 20.8821 12.0658 20.942 12.1589C21.0041 12.2498 21.0144 12.3677 20.9689 12.469L18.7752 17.4663C19.049 17.6099 19.2473 17.7852 19.4342 17.9504ZM5.74559 6.88043L6.10327 5.67299H2.84896L3.20665 6.88043H5.74559ZM5.66289 7.53791H3.28935V13.4387H5.66289V7.53791ZM13.5817 17.919C13.9282 18.2184 14.2565 18.5021 14.8552 18.5021L14.8531 18.5C15.4325 18.5 15.7843 18.2071 16.1507 17.9021C16.6212 17.5105 17.1157 17.0988 18.1467 17.2616L20.1646 12.6634H13.9972L12.9324 13.9721C12.8703 14.0486 12.7773 14.0941 12.6781 14.0941H0.897199C1.55826 15.1357 1.99447 15.9465 2.32603 16.5628C2.96718 17.7544 3.21703 18.2188 3.94476 18.2188H4.13704C4.25247 18.1365 4.36214 18.0411 4.47521 17.9427C4.86445 17.6042 5.29411 17.2306 6.13842 17.2306C6.97527 17.2306 7.38903 17.5865 7.77871 17.9217C8.12554 18.2201 8.45331 18.5021 9.04332 18.5021C9.63334 18.5021 9.96156 18.2201 10.3089 17.9217C10.6991 17.5865 11.1134 17.2306 11.9503 17.2306C12.7849 17.2306 13.1946 17.5846 13.5817 17.919ZM18.2965 19.8882C18.6006 20.1207 18.8876 20.3401 19.3999 20.3401H19.402C19.8362 20.3401 19.8362 20.9955 19.402 20.9955C18.6675 20.9955 18.3003 20.7157 17.9559 20.4532C17.6516 20.2214 17.3651 20.0031 16.8589 20.0031C16.3537 20.0031 16.0696 20.2205 15.7673 20.4519C15.4239 20.7147 15.057 20.9955 14.3158 20.9955C13.5789 20.9955 13.2195 20.7179 12.8809 20.4564C12.5792 20.2234 12.2939 20.0031 11.7727 20.0031C11.2516 20.0031 10.9663 20.2234 10.6646 20.4564C10.326 20.7179 9.96661 20.9955 9.22966 20.9955C8.49075 20.9955 8.12795 20.7165 7.7871 20.4543C7.48512 20.2221 7.20037 20.0031 6.68658 20.0031C6.16837 20.0031 5.92816 20.1898 5.62621 20.4244L5.61766 20.431C4.63558 21.1981 3.6535 21.1981 2.67141 20.431L2.67104 20.4308C2.36522 20.1911 2.12537 20.0031 1.60249 20.0031C1.16831 20.0031 1.16831 19.3477 1.60249 19.3477C2.33399 19.3477 2.6954 19.6252 3.03596 19.8868C3.33938 20.1198 3.62624 20.3401 4.1435 20.3401C4.66138 20.3401 4.94969 20.1192 5.25431 19.8859C5.59547 19.6246 5.95707 19.3477 6.68452 19.3477C7.41489 19.3477 7.78229 19.6269 8.12735 19.8891C8.43283 20.1212 8.72079 20.3401 9.22759 20.3401C9.7344 20.3401 10.0224 20.1212 10.3278 19.8891C10.6729 19.6269 11.0403 19.3477 11.7707 19.3477C12.501 19.3477 12.8684 19.6269 13.2135 19.8891C13.519 20.1212 13.8069 20.3401 14.3138 20.3401C14.8199 20.3401 15.1065 20.1218 15.4107 19.8899C15.7552 19.6275 16.1224 19.3477 16.8568 19.3477C17.5896 19.3477 17.9539 19.6262 18.2965 19.8882Z" fill="#6C5DD3"/>
</svg>
