<svg width="17" height="17" viewBox="0 0 17 17" fill="none" xmlns="http://www.w3.org/2000/svg">
<path fill-rule="evenodd" clip-rule="evenodd" d="M15.4545 8.5C15.4545 12.3409 12.3409 15.4545 8.5 15.4545C4.65911 15.4545 1.54545 12.3409 1.54545 8.5C1.54545 4.65911 4.65911 1.54545 8.5 1.54545C12.3409 1.54545 15.4545 4.65911 15.4545 8.5ZM17 8.5C17 13.1944 13.1944 17 8.5 17C3.80558 17 0 13.1944 0 8.5C0 3.80558 3.80558 0 8.5 0C13.1944 0 17 3.80558 17 8.5ZM12.91 6.72822C13.2118 6.42645 13.2118 5.93719 12.91 5.63542C12.6083 5.33365 12.119 5.33365 11.8172 5.63542L6.95455 10.4981L5.18276 8.72633C4.881 8.42456 4.39173 8.42456 4.08996 8.72633C3.78819 9.0281 3.78819 9.51736 4.08996 9.81913L6.40814 12.1373C6.55306 12.2822 6.74961 12.3636 6.95455 12.3636C7.15949 12.3636 7.35603 12.2822 7.50095 12.1373L12.91 6.72822Z" fill="#77C277"/>
</svg>
