<!--?xml version="1.0" encoding="utf-8"?-->
<!-- Svg Vector Icons : http://www.onlinewebfonts.com/icon -->

<svg version="1.1" xmlns="http://www.w3.org/2000/svg" xmlns:xlink="http://www.w3.org/1999/xlink" x="0px" y="0px" viewBox="0 0 256 256" enable-background="new 0 0 256 256" xml:space="preserve">
<metadata> Svg Vector Icons : http://www.onlinewebfonts.com/icon </metadata>
<g><g><path fill="#6c5dd3" data-title="Layer 0" xs="0" d="M44.7,128c0,46.2,37.3,83.7,83.3,83.7s83.3-37.4,83.3-83.7c0-46.2-37.3-83.7-83.3-83.7S44.7,81.8,44.7,128z"/><path fill="#6c5dd3" data-title="Layer 1" xs="1" d="M128,9.5C62.8,9.5,10,62.5,10,128c0,65.5,52.8,118.5,118,118.5c65.2,0,118-53.1,118-118.5C246,62.5,193.2,9.5,128,9.5z M128,238c-60.4,0-109.5-49.2-109.5-110S67.6,18,128,18c60.4,0,109.5,49.2,109.5,110S188.4,238,128,238z"/></g></g>
</svg>